<svg version="1.1" id="Layer_1" xmlns="http://www.w3.org/2000/svg" xmlns:xlink="http://www.w3.org/1999/xlink" x="0px" y="0px"
	 width="100%" viewBox="0 0 157 145" enable-background="new 0 0 157 145" xml:space="preserve">
<path fill="#FEFEFF" opacity="1.000000" stroke="none" 
	d="
M52.000000,1.000000 
	C64.020897,1.000000 76.041786,1.000000 88.474205,1.353217 
	C88.425514,2.936117 87.965309,4.165801 87.505096,5.395486 
	C88.102951,5.559422 89.123863,6.002850 89.230118,5.842017 
	C89.929062,4.784038 90.480972,3.616606 90.969772,2.438776 
	C91.141037,2.026078 90.998985,1.483351 91.000000,1.000000 
	C113.302864,1.000000 135.605728,1.000000 157.908600,1.000000 
	C157.939072,1.135969 157.996231,1.271937 157.996231,1.407910 
	C158.000076,49.508862 158.000000,97.609818 158.000000,146.000000 
	C121.979622,146.000000 85.958466,146.000000 49.429657,145.631348 
	C46.693081,140.540848 42.972549,139.186035 38.214897,141.139847 
	C36.916386,141.673080 34.417774,142.223022 34.090935,141.717422 
	C31.522146,137.743607 24.706699,137.591171 24.805180,131.217361 
	C24.834400,129.326035 23.937153,127.420395 23.470758,125.546730 
	C18.458044,125.832382 18.458044,125.832382 20.216770,120.580070 
	C18.788586,117.013153 17.908955,114.623642 16.871124,112.304955 
	C16.346863,111.133675 15.418847,110.144760 14.880216,108.977921 
	C13.842482,106.729874 12.789570,104.464363 12.057739,102.108307 
	C11.579913,100.569992 11.795416,98.829987 11.456216,97.232147 
	C10.720439,93.766197 9.838794,90.330864 8.995434,86.888245 
	C8.530570,84.990654 8.365065,82.921822 7.474334,81.243462 
	C3.681144,74.096146 4.221841,69.637077 9.495639,63.806934 
	C10.409108,62.797092 10.605575,60.851917 10.591551,59.343811 
	C10.550093,54.885677 9.667998,50.362446 10.187147,45.992069 
	C10.730778,41.415581 11.360513,36.688969 16.861752,34.188377 
	C19.679684,32.907486 21.370886,29.219612 23.671520,26.711485 
	C26.850660,23.245617 30.109810,19.852379 33.383430,16.475279 
	C33.665264,16.184536 34.390823,16.034319 34.775795,16.178316 
	C38.310654,17.500507 38.858562,15.106411 38.942127,12.652040 
	C39.095181,8.156604 41.270802,6.254518 45.722118,5.868947 
	C48.504879,5.627906 51.948448,5.224200 52.000000,1.000000 
M39.457573,25.116411 
	C39.216881,25.326843 39.021538,25.573227 38.158382,25.944990 
	C37.440331,25.969126 36.722275,25.993261 35.893391,25.331820 
	C34.290607,25.553375 31.892620,25.194109 31.229492,26.101995 
	C28.956766,29.213577 27.292536,32.769611 25.017904,36.831928 
	C23.865320,36.938709 21.616549,37.147045 18.874399,37.401093 
	C21.830769,44.448204 16.588646,48.647808 13.941646,53.379951 
	C11.785287,57.234955 11.291284,57.853802 16.032408,60.808437 
	C15.693577,62.875072 15.354745,64.941704 14.227804,67.006706 
	C9.656262,67.561249 9.982226,70.327187 10.843168,73.789505 
	C12.259140,79.483871 12.954988,85.372971 14.609106,90.987083 
	C15.752665,94.868340 15.379321,99.737312 19.998270,102.822327 
	C19.866495,104.733986 19.734720,106.645638 19.605131,108.525581 
	C24.845970,109.353317 27.377644,112.188866 26.575657,115.478149 
	C25.940273,118.084145 26.055134,120.873062 25.836853,123.580750 
	C26.270060,123.820206 26.703266,124.059662 27.136473,124.299110 
	C30.736597,120.050797 33.457737,119.924149 35.280773,125.180542 
	C35.539642,125.926941 36.642292,126.674194 37.485100,126.876427 
	C42.538429,128.089035 44.562870,134.929596 50.753384,133.984024 
	C50.971119,133.950775 51.405140,134.321152 51.490429,134.583878 
	C52.968510,139.136856 55.980499,139.684631 60.126621,138.286255 
	C61.120403,137.951065 62.579201,139.328751 63.814087,139.308426 
	C66.892006,139.257736 70.253944,143.191391 73.950432,138.743759 
	C76.968346,138.813553 79.986267,138.883362 83.011848,139.697281 
	C83.528046,142.993408 85.503593,142.916245 88.104591,142.131836 
	C92.023163,140.950043 95.973915,139.694077 100.003448,139.128601 
	C102.441055,138.786530 103.599831,138.353378 104.416115,135.757935 
	C105.438187,132.508163 107.273560,129.114578 111.993874,132.439926 
	C111.993874,132.439926 112.039017,132.906662 111.737251,133.609619 
	C109.669060,137.991409 112.016609,140.552719 115.621529,142.215881 
	C119.099892,143.820663 118.935417,140.226212 120.885063,138.541016 
	C123.733116,137.598495 126.581169,136.655991 130.157913,136.032272 
	C131.915405,136.293213 133.672897,136.554153 135.430389,136.815079 
	C134.828278,135.178772 134.219116,133.545013 133.627136,131.905060 
	C133.349701,131.136475 133.105392,130.355927 132.709305,128.849228 
	C131.670410,125.934525 130.631500,123.019821 130.385574,120.054367 
	C132.138443,119.820877 133.891327,119.587387 135.644196,119.353897 
	C134.271347,118.203453 132.908676,117.040588 131.522430,115.906525 
	C130.425888,115.009499 129.300415,114.147858 128.245224,113.315796 
	C126.908913,114.733276 125.731483,115.982216 124.015503,117.302490 
	C123.673042,117.191971 123.330589,117.081451 122.824646,116.644836 
	C122.554184,116.740929 122.283722,116.837013 121.370407,117.102898 
	C120.709312,117.117577 120.048210,117.132263 118.595222,117.004745 
	C115.107178,115.671417 111.619133,114.338081 107.936783,112.369591 
	C108.007690,111.932823 108.078606,111.496048 108.542152,111.022583 
	C108.542152,111.022583 108.933083,110.970764 109.452248,110.661644 
	C109.586967,110.290398 109.721687,109.919151 109.699760,109.279472 
	C109.699760,109.279472 109.871849,109.020660 110.429680,108.651505 
	C110.566086,108.235191 110.702492,107.818871 110.561531,107.184784 
	C110.458229,106.918114 110.531075,106.714806 110.919838,105.810585 
	C110.951797,105.553589 110.983765,105.296600 111.005081,104.992065 
	C111.005081,104.992065 111.050179,105.010483 111.536095,104.615654 
	C111.645248,104.217155 111.754402,103.818657 111.484467,102.939430 
	C111.024498,101.206093 110.564522,99.472763 110.191658,97.051399 
	C113.437553,95.180183 116.642021,93.229149 119.964211,91.504944 
	C120.630234,91.159279 122.011993,91.353500 122.609520,91.847824 
	C127.375244,95.790504 132.436508,95.036041 138.219910,92.832817 
	C138.450089,92.498528 138.680283,92.164238 138.923462,91.925827 
	C138.923462,91.925827 138.828842,91.905624 139.358383,91.728127 
	C139.547729,91.419739 139.737091,91.111359 140.145081,90.215019 
	C140.938858,88.753281 141.732651,87.291542 143.215729,85.879768 
	C143.164627,84.591873 143.113525,83.303986 142.829697,81.311913 
	C141.877747,78.897926 140.925797,76.483932 139.772369,73.593452 
	C139.492142,73.403557 139.211899,73.213661 138.354858,72.796303 
	C137.690216,72.302193 137.025558,71.808083 137.048294,70.955368 
	C139.449600,70.587090 141.850906,70.218819 144.649521,69.789612 
	C146.702255,62.908924 143.284561,56.480072 140.444550,49.872528 
	C138.887436,46.249748 133.733780,43.105019 138.575241,38.236477 
	C139.009750,37.799538 138.020782,35.177917 137.041458,34.287106 
	C135.626328,32.999897 133.668625,32.240253 131.848755,31.479652 
	C126.090439,29.073008 124.307114,21.889074 117.953018,20.109209 
	C116.063255,19.579861 114.510307,17.943012 112.686081,17.053455 
	C111.327591,16.391012 109.780663,16.115015 107.925781,15.546878 
	C110.524353,13.941477 112.449097,12.752372 114.373833,11.563268 
	C113.635773,10.518278 112.897713,9.473289 112.159653,8.428299 
	C108.331047,9.657725 104.502434,10.887151 101.451660,11.866801 
	C99.826088,10.199943 98.077667,8.407119 95.988922,6.265319 
	C94.568619,8.455235 93.793884,9.649779 93.036034,10.818281 
	C86.807693,10.225275 80.730171,9.619437 74.644180,9.115780 
	C74.124420,9.072765 73.548370,9.709822 72.193405,10.037493 
	C68.795891,10.704238 65.398376,11.370984 61.919468,11.310544 
	C60.655209,10.690997 59.050026,9.268631 58.201820,9.628827 
	C56.706108,10.263987 55.672199,11.986617 54.091286,13.619201 
	C47.208931,12.232121 40.610447,16.732248 39.949436,24.419626 
	C39.949436,24.419626 39.858784,24.863325 39.457573,25.116411 
M142.713959,134.107254 
	C142.318069,132.459976 141.922180,130.812698 141.526291,129.165421 
	C138.918427,131.916718 137.457336,134.316299 142.713959,134.107254 
M71.201736,5.607376 
	C71.205940,5.213924 71.210152,4.820473 71.214363,4.427022 
	C71.051094,4.425489 70.745911,4.413003 70.745064,4.424008 
	C70.714851,4.815513 70.713127,5.209216 71.201736,5.607376 
z"/>
<path fill="#FFFFFF" opacity="1.000000" stroke="none" 
	d="
M51.531342,1.000000 
	C51.948448,5.224200 48.504879,5.627906 45.722118,5.868947 
	C41.270802,6.254518 39.095181,8.156604 38.942127,12.652040 
	C38.858562,15.106411 38.310654,17.500507 34.775795,16.178316 
	C34.390823,16.034319 33.665264,16.184536 33.383430,16.475279 
	C30.109810,19.852379 26.850660,23.245617 23.671520,26.711485 
	C21.370886,29.219612 19.679684,32.907486 16.861752,34.188377 
	C11.360513,36.688969 10.730778,41.415581 10.187147,45.992069 
	C9.667998,50.362446 10.550093,54.885677 10.591551,59.343811 
	C10.605575,60.851917 10.409108,62.797092 9.495639,63.806934 
	C4.221841,69.637077 3.681144,74.096146 7.474334,81.243462 
	C8.365065,82.921822 8.530570,84.990654 8.995434,86.888245 
	C9.838794,90.330864 10.720439,93.766197 11.456216,97.232147 
	C11.795416,98.829987 11.579913,100.569992 12.057739,102.108307 
	C12.789570,104.464363 13.842482,106.729874 14.880216,108.977921 
	C15.418847,110.144760 16.346863,111.133675 16.871124,112.304955 
	C17.908955,114.623642 18.788586,117.013153 20.216770,120.580070 
	C18.458044,125.832382 18.458044,125.832382 23.470758,125.546730 
	C23.937153,127.420395 24.834400,129.326035 24.805180,131.217361 
	C24.706699,137.591171 31.522146,137.743607 34.090935,141.717422 
	C34.417774,142.223022 36.916386,141.673080 38.214897,141.139847 
	C42.972549,139.186035 46.693081,140.540848 48.960999,145.631348 
	C33.028732,146.000000 17.057463,146.000000 1.086194,146.000000 
	C1.057462,145.862366 1.003560,145.724731 1.003549,145.587097 
	C0.999929,97.506920 1.000000,49.426746 1.000000,1.000000 
	C17.685961,1.000000 34.374321,1.000000 51.531342,1.000000 
z"/>
<path fill="#F5FBFC" opacity="1.000000" stroke="none" 
	d="
M90.666672,1.000000 
	C90.998985,1.483351 91.141037,2.026078 90.969772,2.438776 
	C90.480972,3.616606 89.929062,4.784038 89.230118,5.842017 
	C89.123863,6.002850 88.102951,5.559422 87.505096,5.395486 
	C87.965309,4.165801 88.425514,2.936117 88.942863,1.353217 
	C89.444443,1.000000 89.888893,1.000000 90.666672,1.000000 
z"/>
<path fill="#F5FBFC" opacity="1.000000" stroke="none" 
	d="
M111.816154,132.005905 
	C107.273560,129.114578 105.438187,132.508163 104.416115,135.757935 
	C103.599831,138.353378 102.441055,138.786530 100.003448,139.128601 
	C95.973915,139.694077 92.023163,140.950043 88.104591,142.131836 
	C85.503593,142.916245 83.528046,142.993408 83.405670,139.241943 
	C89.131775,137.667252 94.497086,136.682175 99.784775,135.381531 
	C103.342361,134.506454 104.110069,132.296951 101.824646,128.817703 
	C98.493744,129.919327 95.262566,130.987946 91.692429,132.046051 
	C90.914932,132.136627 90.476395,132.237747 89.630127,132.270233 
	C85.807037,132.567856 82.391670,132.934128 78.644547,133.224152 
	C77.860870,133.163452 77.408943,133.179016 76.548576,133.091431 
	C68.144478,130.913452 60.148819,128.838654 52.155415,126.741119 
	C52.157665,126.718407 52.190258,126.685165 51.993393,126.415375 
	C45.727425,120.835648 39.724842,115.445793 33.528389,110.288887 
	C32.401905,109.351387 30.482723,109.366371 28.929482,108.941650 
	C29.054323,110.560074 28.580509,112.626175 29.401491,113.724014 
	C34.600056,120.675697 40.670887,126.709122 48.911499,130.087769 
	C48.920635,130.072861 48.918571,130.074631 49.078735,130.379578 
	C51.144997,131.508682 53.051098,132.332840 55.091217,133.230103 
	C55.225235,133.303207 55.525208,133.246307 55.778915,133.516846 
	C59.030064,134.782761 62.027508,135.778107 65.346680,136.874481 
	C66.116554,136.980377 66.564705,136.985260 67.281929,137.225922 
	C69.383888,137.894592 71.216774,138.327484 73.049660,138.760376 
	C70.253944,143.191391 66.892006,139.257736 63.814087,139.308426 
	C62.579201,139.328751 61.120403,137.951065 60.126621,138.286255 
	C55.980499,139.684631 52.968510,139.136856 51.490429,134.583878 
	C51.405140,134.321152 50.971119,133.950775 50.753384,133.984024 
	C44.562870,134.929596 42.538429,128.089035 37.485100,126.876427 
	C36.642292,126.674194 35.539642,125.926941 35.280773,125.180542 
	C33.457737,119.924149 30.736597,120.050797 27.136473,124.299110 
	C26.703266,124.059662 26.270060,123.820206 25.836853,123.580750 
	C26.055134,120.873062 25.940273,118.084145 26.575657,115.478149 
	C27.377644,112.188866 24.845970,109.353317 19.605131,108.525581 
	C19.734720,106.645638 19.866495,104.733986 20.003237,102.407913 
	C20.008204,101.993507 20.020840,101.983650 20.279663,102.095306 
	C21.336483,102.210968 22.134476,102.214966 23.315861,102.204712 
	C24.623226,101.818718 25.547203,101.446983 26.654335,101.046181 
	C26.839258,100.655235 26.841028,100.293358 26.764482,99.649803 
	C26.683947,99.173241 26.681726,98.978355 26.799042,98.512222 
	C26.307152,96.826965 25.695730,95.412971 25.008926,93.796402 
	C24.933544,93.593826 24.913986,93.161987 24.950886,92.737610 
	C24.097273,89.209747 23.206762,86.106277 22.237806,82.743019 
	C22.114853,82.307899 22.070343,82.132553 22.033142,81.734459 
	C22.040447,81.511719 22.030046,81.065903 22.017778,81.035156 
	C22.005510,81.004417 22.071680,81.002502 22.354080,80.709854 
	C22.724136,75.262169 22.811796,70.107140 22.903084,64.622833 
	C22.976343,63.860710 23.045973,63.427864 23.352114,62.786903 
	C23.780228,61.768074 23.971827,60.957355 24.390812,59.878189 
	C24.721178,58.685673 24.824160,57.761600 24.946943,56.625244 
	C24.966745,56.412952 25.118582,56.014481 25.352364,55.824936 
	C25.711666,55.058727 25.837185,54.482067 25.990108,53.684555 
	C26.017515,53.463707 26.205210,53.060135 26.534973,52.980812 
	C28.920361,48.619003 30.975985,44.336514 33.157166,39.743999 
	C36.586128,35.987122 39.889534,32.540268 43.490662,29.069805 
	C44.227356,28.710985 44.666321,28.375774 45.310505,27.931883 
	C45.774952,27.629251 45.942875,27.374996 46.262932,27.032104 
	C46.506374,27.003775 46.996510,26.997829 47.300522,26.990541 
	C48.063488,26.639360 48.522438,26.295467 48.990532,25.976028 
	C48.999680,26.000484 48.954796,25.973783 49.174377,25.914715 
	C49.675655,25.713795 49.882202,25.499521 50.210789,25.114979 
	C50.407967,25.017130 50.838303,24.924267 51.203114,24.952435 
	C52.387585,24.343081 53.207245,23.705557 54.171989,22.979549 
	C54.317070,22.891066 54.654869,22.853638 54.930275,22.842171 
	C55.475857,22.601696 55.746040,22.372684 56.214920,22.065605 
	C56.413616,21.987537 56.837845,21.939251 57.073502,21.905289 
	C57.620296,21.753847 57.850449,21.546516 58.238838,21.156370 
	C58.647793,21.041862 58.817532,21.020325 59.326309,21.013954 
	C60.470470,20.722734 61.275593,20.416346 62.507988,20.084702 
	C66.644547,19.102823 70.353844,18.146202 74.161613,16.977617 
	C74.260094,16.765654 74.289604,16.299137 74.218750,16.206009 
	C74.147888,16.112883 74.328873,16.261272 74.598396,16.216377 
	C75.247444,15.778760 75.626976,15.386035 76.176079,14.909597 
	C76.232666,14.552341 76.119667,14.278798 75.878876,13.775084 
	C75.465332,13.105511 75.179573,12.666110 74.800919,11.943125 
	C74.138168,11.116678 73.568321,10.573816 72.998474,10.030954 
	C73.548370,9.709822 74.124420,9.072765 74.644180,9.115780 
	C80.730171,9.619437 86.807693,10.225275 93.036034,10.818281 
	C93.793884,9.649779 94.568619,8.455235 95.988922,6.265319 
	C98.077667,8.407119 99.826088,10.199943 101.451660,11.866801 
	C104.502434,10.887151 108.331047,9.657725 112.159653,8.428299 
	C112.897713,9.473289 113.635773,10.518278 114.373833,11.563268 
	C112.449097,12.752372 110.524353,13.941477 107.925781,15.546878 
	C109.780663,16.115015 111.327591,16.391012 112.686081,17.053455 
	C114.510307,17.943012 116.063255,19.579861 117.953018,20.109209 
	C124.307114,21.889074 126.090439,29.073008 131.848755,31.479652 
	C133.668625,32.240253 135.626328,32.999897 137.041458,34.287106 
	C138.020782,35.177917 139.009750,37.799538 138.575241,38.236477 
	C133.733780,43.105019 138.887436,46.249748 140.444550,49.872528 
	C143.284561,56.480072 146.702255,62.908924 144.649521,69.789612 
	C141.850906,70.218819 139.449600,70.587090 136.348495,71.049294 
	C125.713875,68.064003 118.652641,73.157501 118.233955,83.705048 
	C118.101723,87.036201 110.476219,92.645874 108.006233,91.027992 
	C104.375572,88.649857 100.996849,85.887093 97.901680,83.168121 
	C100.561783,80.172951 98.987633,71.571259 95.926559,70.186127 
	C95.633286,70.053421 95.243530,70.129555 94.955215,69.990913 
	C89.925087,67.572159 84.903824,65.134987 79.519310,62.526802 
	C78.418312,63.169010 76.712578,64.163963 75.378510,64.942116 
	C74.315956,62.543121 73.536804,60.783981 72.289459,57.967785 
	C71.437065,59.893311 71.177696,60.306984 71.067062,60.757202 
	C70.363449,63.620544 69.179176,66.482399 69.125626,69.362816 
	C69.034348,74.272354 65.642593,73.574730 62.625179,74.252747 
	C61.658382,74.469978 60.883717,76.391083 60.451935,77.677246 
	C60.302086,78.123596 61.329945,79.414009 62.030197,79.626785 
	C68.198486,81.501038 74.428345,81.712547 80.912567,81.255379 
	C85.596207,80.925171 90.423714,82.635567 94.914879,83.626114 
	C92.428246,84.246094 90.213783,84.675835 87.632858,85.029861 
	C77.395531,88.544495 73.008621,99.298317 77.798187,108.136528 
	C77.808296,108.084343 77.711250,108.127739 77.732544,108.473389 
	C78.173615,109.334778 78.593407,109.850510 79.066772,110.473572 
	C79.120338,110.580894 79.464928,110.910400 79.472603,111.267166 
	C79.951462,112.129753 80.422646,112.635559 80.906265,113.097305 
	C80.918701,113.053246 80.829720,113.074844 80.869843,113.315338 
	C81.273201,113.846878 81.636452,114.137924 82.174835,114.641418 
	C82.521156,114.920158 82.692329,114.986427 83.048965,115.353531 
	C87.027672,118.048645 90.854225,120.284279 95.745010,118.438782 
	C96.232033,118.569176 96.552032,118.505730 97.294189,118.458282 
	C100.454765,118.372559 103.193169,118.270844 106.039070,118.420677 
	C106.720497,119.109550 107.294426,119.546875 108.028801,120.291832 
	C109.330727,122.243248 110.931076,123.746262 111.490120,125.568710 
	C112.101059,127.560371 111.748665,129.847534 111.816154,132.005905 
M48.370834,42.974636 
	C48.187534,43.278725 48.004238,43.582813 47.815487,43.844513 
	C47.815487,43.844513 47.776855,43.824608 47.177559,44.120888 
	C41.479916,50.009907 37.586754,56.840813 36.026997,65.663467 
	C36.025558,66.121452 36.024117,66.579437 35.537766,67.690437 
	C33.207039,76.750450 38.412903,85.953438 34.992401,95.508461 
	C35.024559,95.677383 35.056721,95.846313 34.855877,96.600487 
	C35.530041,98.154488 36.204205,99.708488 37.306110,101.858078 
	C40.211834,102.588509 43.117558,103.318939 46.374222,104.474007 
	C46.856796,104.719490 47.339371,104.964973 48.004982,105.162048 
	C48.004982,105.162048 47.817764,105.182831 48.094173,105.792053 
	C54.434731,112.417763 62.117710,116.404053 71.479660,117.477844 
	C70.236031,115.150154 68.784370,113.006561 66.792389,111.665565 
	C61.676849,108.221771 56.321560,105.134109 50.945915,101.417168 
	C50.856327,101.276390 50.766743,101.135612 50.961624,100.235382 
	C52.977333,93.680573 51.357296,88.869263 45.737083,87.409622 
	C42.125751,86.471718 41.622559,84.244713 40.995914,81.476463 
	C39.246403,73.747864 41.235264,66.386543 43.448601,58.565041 
	C43.699356,57.870972 43.950111,57.176907 44.714329,56.053680 
	C44.924530,55.436386 45.134735,54.819088 45.236385,54.261604 
	C45.236385,54.261604 45.356579,54.291840 45.925541,54.018608 
	C46.394852,53.094265 46.864162,52.169926 47.099876,51.274967 
	C47.099876,51.274967 47.334442,51.295174 47.896099,51.071308 
	C48.344711,50.410980 48.793324,49.750648 49.763718,48.816673 
	C50.525669,47.932014 51.287621,47.047356 52.564354,45.950851 
	C52.789097,45.661053 53.013844,45.371258 53.779648,44.861595 
	C54.180897,44.441078 54.582150,44.020561 55.464779,43.440155 
	C55.759747,43.063057 56.054714,42.685963 56.144154,42.198589 
	C56.144154,42.198589 56.307610,42.364971 56.920452,42.266197 
	C57.608219,41.816883 58.295990,41.367569 59.698341,40.804260 
	C60.888153,40.230453 62.063290,39.623505 63.270473,39.088928 
	C67.194206,37.351402 70.631516,35.543079 74.537155,40.157799 
	C77.296997,43.418701 82.317108,43.157764 85.259827,39.927334 
	C88.088669,36.821915 90.710716,37.062321 94.429398,38.537376 
	C106.611534,44.472507 114.642357,53.915764 117.764854,67.082726 
	C121.782738,66.325531 122.851891,64.389191 121.690590,61.223812 
	C117.621185,50.131763 111.315910,40.923351 99.761086,35.249557 
	C95.010506,32.011730 88.779915,31.711685 84.934593,26.222387 
	C82.638786,22.945053 77.901596,23.038725 74.085403,26.721224 
	C73.836479,26.892221 73.638344,27.109529 72.943817,27.765785 
	C71.294350,29.160860 69.644882,30.555935 67.314400,31.953875 
	C66.881538,32.079575 66.448677,32.205273 65.309425,32.298470 
	C62.101562,34.064514 58.893703,35.830555 55.626175,37.646812 
	C55.626175,37.646812 55.614376,37.569729 55.275131,37.572098 
	C55.275131,37.572098 55.004158,37.784649 54.388760,37.929039 
	C53.824844,38.500191 53.260925,39.071339 52.703785,39.683285 
	C52.703785,39.683285 52.741146,39.701015 52.218681,39.813213 
	C52.042339,40.104515 51.865993,40.395817 51.854424,40.675964 
	C51.854424,40.675964 51.702843,40.610397 51.102432,40.650761 
	C50.688980,41.061539 50.275532,41.472317 49.941944,41.961964 
	C49.941944,41.961964 49.919685,41.851944 49.403057,42.012314 
	C49.213726,42.308449 49.024399,42.604584 48.926025,42.915169 
	C48.926025,42.915169 48.897949,42.827454 48.370834,42.974636 
M107.808342,75.389717 
	C107.638840,74.568184 107.469337,73.746651 107.318436,72.146423 
	C106.042770,60.339844 92.063530,61.310287 87.375488,52.476627 
	C86.117607,50.106392 80.634720,49.978371 76.494949,48.493053 
	C66.379295,49.553883 62.721123,52.628685 59.796841,61.931957 
	C59.206120,63.811268 57.828648,65.651024 56.351578,67.004471 
	C52.160217,70.845062 50.364334,75.344131 51.844631,80.890938 
	C53.397511,86.709702 57.581985,89.643761 63.269012,90.671539 
	C67.180779,91.378502 70.115623,90.497635 70.515968,85.191917 
	C68.408035,85.191917 66.454979,85.122849 64.508377,85.205696 
	C59.868824,85.403160 56.982037,82.550606 56.551556,78.672142 
	C56.228519,75.761726 56.884460,71.891907 61.270275,70.711952 
	C62.443287,70.396370 63.228046,68.358269 64.035927,67.017487 
	C66.428276,63.047062 68.743164,59.029953 71.556061,54.942493 
	C71.556061,54.942493 72.004028,54.781471 72.693489,54.688515 
	C73.803261,54.441769 74.913025,54.195023 76.264565,54.504288 
	C76.841087,54.582371 77.417618,54.660450 78.735764,54.936077 
	C81.775993,56.669807 84.816231,58.403534 87.906349,60.103336 
	C87.906349,60.103336 87.853691,60.088634 87.940437,60.823017 
	C88.450439,62.332916 88.960442,63.842815 89.541039,65.561729 
	C91.186760,65.389648 92.610130,65.240822 94.490219,65.283890 
	C94.490219,65.283890 94.984406,65.327515 94.984406,65.327515 
	C94.984406,65.327515 95.442184,65.136322 95.894295,65.670540 
	C97.246765,66.491135 98.599243,67.311737 100.062149,68.556404 
	C100.206429,68.831429 100.427658,69.012329 100.924789,69.774170 
	C102.462456,71.896812 104.000122,74.019463 105.946274,76.544502 
	C106.476120,76.359421 107.005974,76.174339 107.808342,75.389717 
M130.008987,36.514019 
	C121.641075,25.324898 110.622375,17.878500 97.278145,14.068218 
	C93.021744,12.852856 88.363876,11.375245 83.003151,14.750178 
	C85.836487,16.055813 87.778023,17.398491 89.911140,17.864826 
	C113.768234,23.080379 129.020950,37.472855 135.652069,60.860096 
	C136.634277,64.324257 138.387680,65.786354 142.212036,66.625206 
	C141.005615,55.342888 136.742096,45.822414 130.008987,36.514019 
z"/>
<path fill="#7D45AC" opacity="1.000000" stroke="none" 
	d="
M97.510803,83.288185 
	C100.996849,85.887093 104.375572,88.649857 108.006233,91.027992 
	C110.476219,92.645874 118.101723,87.036201 118.233955,83.705048 
	C118.652641,73.157501 125.713875,68.064003 136.004807,71.228592 
	C137.025558,71.808083 137.690216,72.302193 138.720947,73.166794 
	C139.382645,73.714836 139.678238,73.892387 139.973846,74.069946 
	C140.925797,76.483932 141.877747,78.897926 142.833542,82.033981 
	C142.733734,83.780640 142.630081,84.805222 142.526428,85.829803 
	C141.732651,87.291542 140.938858,88.753281 139.778473,90.610184 
	C139.217529,91.305443 139.023178,91.605530 138.828842,91.905624 
	C138.828842,91.905624 138.923462,91.925827 138.618927,91.978020 
	C138.086578,92.371078 137.858765,92.711945 137.630966,93.052811 
	C132.436508,95.036041 127.375244,95.790504 122.609520,91.847824 
	C122.011993,91.353500 120.630234,91.159279 119.964211,91.504944 
	C116.642021,93.229149 113.437553,95.180183 110.117256,97.821838 
	C110.303406,101.463921 109.677986,103.545662 106.052956,102.622284 
	C105.972885,100.454231 106.379257,98.527748 105.851166,96.905441 
	C103.691826,90.271881 98.844521,87.488815 91.771378,87.713005 
	C90.366753,86.671539 89.183037,85.888557 87.999329,85.105576 
	C90.213783,84.675835 92.428246,84.246094 95.207840,83.619759 
	C96.352257,83.378166 96.931534,83.333176 97.510803,83.288185 
M126.424919,88.147865 
	C130.982971,90.272949 136.026779,89.398064 137.479614,85.586105 
	C138.728653,82.308907 138.327957,78.765915 134.804489,76.529465 
	C131.426392,74.385284 128.010178,74.439598 125.419693,77.473030 
	C122.614632,80.757744 122.743195,84.395622 126.424919,88.147865 
z"/>
<path fill="#7E48AD" opacity="1.000000" stroke="none" 
	d="
M107.868355,119.984192 
	C107.294426,119.546875 106.720497,119.109550 106.023689,118.042511 
	C102.268204,112.292091 99.681458,116.343697 96.872025,118.442284 
	C96.552032,118.505730 96.232033,118.569176 95.340286,118.272743 
	C90.800194,116.959488 86.831848,116.006096 82.863510,115.052704 
	C82.692329,114.986427 82.521156,114.920158 82.123215,114.405205 
	C81.540878,113.662628 81.185303,113.368736 80.829720,113.074844 
	C80.829720,113.074844 80.918701,113.053246 80.902039,112.729919 
	C80.411888,111.907867 79.938408,111.409134 79.464928,110.910400 
	C79.464928,110.910400 79.120338,110.580894 79.043991,110.111954 
	C78.548836,109.137917 78.130043,108.632828 77.711250,108.127739 
	C77.711250,108.127739 77.808296,108.084343 77.864861,107.799202 
	C78.064896,106.896591 78.208366,106.279129 78.363342,105.612122 
	C80.145645,106.968674 81.762016,108.198936 83.363953,109.523346 
	C83.349503,109.617500 83.187805,109.718224 83.297432,110.034836 
	C83.807968,110.522331 84.208885,110.693214 84.751953,110.866508 
	C85.094101,110.968773 85.172012,111.128189 85.235947,111.729706 
	C86.053703,112.362000 86.763367,112.611740 87.756256,112.853683 
	C88.711327,113.152176 89.383179,113.458473 90.273262,114.101662 
	C93.075218,114.165276 95.658943,113.892006 98.401932,113.395142 
	C99.373001,112.778145 100.184792,112.384735 101.205475,112.245003 
	C103.659409,112.018883 105.904457,111.539078 108.149513,111.059280 
	C108.078606,111.496048 108.007690,111.932823 108.004173,113.040154 
	C112.388298,119.671196 113.979698,120.154465 119.387115,117.146942 
	C120.048210,117.132263 120.709312,117.117577 121.932999,117.092117 
	C122.659767,117.044533 122.823952,117.007729 122.988129,116.970924 
	C123.330589,117.081451 123.673042,117.191971 124.544830,117.492249 
	C126.580299,118.489716 128.086441,119.297417 129.592590,120.105125 
	C130.631500,123.019821 131.670410,125.934525 132.540405,129.488678 
	C131.390732,131.989899 130.409973,133.851685 129.429214,135.713470 
	C126.581169,136.655991 123.733116,137.598495 120.267906,138.399597 
	C118.476791,137.597717 117.302826,136.937256 115.982391,136.002686 
	C115.494904,135.512085 115.153893,135.295593 114.876465,135.071152 
	C114.940056,135.063202 114.928749,135.190872 114.808357,134.912689 
	C114.336220,134.456558 113.984474,134.278625 113.438339,134.029617 
	C113.015549,133.766251 112.907608,133.520966 112.994446,132.844116 
	C114.122704,131.907791 115.176628,131.350037 116.199631,130.839142 
	C116.168701,130.886017 116.064323,130.849564 116.163849,131.107941 
	C116.565765,131.563202 116.868164,131.760101 117.504913,132.010712 
	C118.895515,132.374344 119.951775,132.684265 121.332779,133.087158 
	C122.098373,133.114365 122.539215,133.048615 123.343788,132.986359 
	C124.815689,131.323090 125.923866,129.656357 127.073387,127.655457 
	C127.024506,126.884583 126.934280,126.447845 126.839539,125.750298 
	C126.582916,125.265526 126.330818,125.041573 126.015266,124.609360 
	C125.816803,124.122810 125.601517,123.938034 125.095062,123.557381 
	C122.640167,123.536385 120.396164,123.804787 117.902901,124.227554 
	C117.416588,124.905975 117.179535,125.430038 116.724808,125.996384 
	C116.507133,126.038658 116.087234,126.181358 115.925568,125.960266 
	C115.022232,125.885651 114.280563,126.032127 113.538887,126.178612 
	C113.817085,125.795715 114.095284,125.412827 114.373482,125.029930 
	C112.205101,123.348015 110.036728,121.666107 107.868355,119.984192 
z"/>
<path fill="#F5FBFC" opacity="1.000000" stroke="none" 
	d="
M16.053923,60.002560 
	C11.291284,57.853802 11.785287,57.234955 13.941646,53.379951 
	C16.588646,48.647808 21.830769,44.448204 18.874399,37.401093 
	C21.616549,37.147045 23.865320,36.938709 25.017904,36.831928 
	C27.292536,32.769611 28.956766,29.213577 31.229492,26.101995 
	C31.892620,25.194109 34.290607,25.553375 35.947884,26.021114 
	C35.939297,27.400091 35.876213,28.089771 35.473198,28.853722 
	C34.404114,29.898735 33.674961,30.869480 32.859261,32.086647 
	C32.512066,32.552773 32.251423,32.772480 31.762985,33.092918 
	C31.247618,33.395969 31.072945,33.670208 31.005253,34.008568 
	C30.999334,34.000774 31.014206,34.010464 30.772844,34.127243 
	C30.378784,34.558235 30.226088,34.872452 30.021147,35.459927 
	C29.905127,36.095421 29.841347,36.457664 29.797213,36.859219 
	C29.816858,36.898533 29.885384,36.843479 29.630501,36.929825 
	C29.214695,37.328148 29.053772,37.640125 28.937351,37.961655 
	C28.981855,37.971207 28.924381,37.900604 28.644268,38.052128 
	C28.063232,38.759129 27.762312,39.314610 27.317451,39.808022 
	C27.173512,39.745953 26.866510,39.682423 26.688530,39.595512 
	C26.326208,39.981972 26.141870,40.455341 25.979738,40.954292 
	C26.001945,40.979881 25.934349,40.975189 25.709007,41.106705 
	C25.344446,41.549446 25.205229,41.860672 25.023497,42.386230 
	C24.980982,42.600563 24.777933,42.987541 24.592831,43.094395 
	C24.189802,43.393089 24.021215,43.621380 23.551752,43.984348 
	C22.498068,46.115356 21.794596,48.148129 21.071289,50.385452 
	C21.051453,50.590000 20.896168,50.970558 20.531939,51.032776 
	C18.796448,54.064178 17.425184,57.033371 16.053923,60.002560 
z"/>
<path fill="#F5FBFC" opacity="1.000000" stroke="none" 
	d="
M20.001818,101.998932 
	C15.379321,99.737312 15.752665,94.868340 14.609106,90.987083 
	C12.954988,85.372971 12.259140,79.483871 10.843168,73.789505 
	C9.982226,70.327187 9.656262,67.561249 14.623098,67.469025 
	C15.514920,72.296181 16.011448,76.661018 16.612856,81.388809 
	C16.753321,82.503372 16.788906,83.254982 16.681084,84.111534 
	C16.672997,84.478767 16.808319,84.741051 17.017300,85.330414 
	C17.121298,86.325867 17.151638,86.994247 17.119621,88.036850 
	C17.389761,89.274101 17.722258,90.137123 18.143433,91.242386 
	C18.240448,91.825111 18.248785,92.165596 18.252392,92.808594 
	C18.500038,93.406914 18.752417,93.702705 19.074276,94.179733 
	C19.143757,94.360954 19.135393,94.749039 19.084223,95.170868 
	C19.362316,97.723015 19.691578,99.853333 20.020840,101.983650 
	C20.020840,101.983650 20.008204,101.993507 20.001818,101.998932 
z"/>
<path fill="#F5FBFC" opacity="1.000000" stroke="none" 
	d="
M39.989117,23.968504 
	C40.610447,16.732248 47.208931,12.232121 54.091286,13.619201 
	C55.672199,11.986617 56.706108,10.263987 58.201820,9.628827 
	C59.050026,9.268631 60.655209,10.690997 61.765869,11.921389 
	C60.726738,13.287970 59.841202,14.043705 58.693710,14.905774 
	C58.059963,15.065782 57.688171,15.119455 56.976944,15.131126 
	C56.106586,15.426898 55.575672,15.764675 55.028183,16.061617 
	C55.011612,16.020782 55.087250,16.066031 54.863094,16.108324 
	C54.346836,16.275434 54.130329,16.480169 53.784008,16.865229 
	C53.578606,16.965635 53.131096,17.059557 52.740372,17.032825 
	C51.254707,17.701803 50.159767,18.397516 49.025780,19.065678 
	C48.986725,19.038126 49.075005,19.071814 48.705353,19.042479 
	C46.857067,19.980619 45.378433,20.948095 43.701057,22.037201 
	C43.245766,22.354301 43.069412,22.605978 42.807861,23.132252 
	C42.172470,23.611671 41.702477,23.872702 40.922462,24.086266 
	C40.404663,24.015366 40.196892,23.991936 39.989117,23.968504 
z"/>
<path fill="#61C1CE" opacity="1.000000" stroke="none" 
	d="
M92.031380,132.056580 
	C95.262566,130.987946 98.493744,129.919327 101.824646,128.817703 
	C104.110069,132.296951 103.342361,134.506454 99.784775,135.381531 
	C94.497086,136.682175 89.131775,137.667252 83.401840,138.869888 
	C79.986267,138.883362 76.968346,138.813553 73.500046,138.752075 
	C71.216774,138.327484 69.383888,137.894592 67.539017,136.942535 
	C68.333130,136.335480 69.178024,136.044846 69.939445,136.190521 
	C79.420929,138.004807 88.714867,137.286575 97.816544,134.153320 
	C98.909126,133.777191 99.824158,132.885315 101.090218,132.056580 
	C97.494110,132.056580 94.762749,132.056580 92.031380,132.056580 
z"/>
<path fill="#7C43A8" opacity="1.000000" stroke="none" 
	d="
M108.345833,111.040932 
	C105.904457,111.539078 103.659409,112.018883 101.387230,111.962433 
	C102.943329,108.618690 104.526543,105.811188 106.109756,103.003693 
	C109.677986,103.545662 110.303406,101.463921 110.073700,98.165848 
	C110.564522,99.472763 111.024498,101.206093 111.440994,103.385803 
	C111.281738,104.224945 111.165962,104.617714 111.050186,105.010483 
	C111.050179,105.010483 111.005081,104.992065 110.745171,105.092575 
	C110.583534,105.653664 110.681808,106.114258 110.780075,106.574844 
	C110.531075,106.714806 110.458229,106.918114 110.421814,107.487747 
	C110.145340,108.200699 110.008598,108.610680 109.871857,109.020660 
	C109.871849,109.020660 109.699760,109.279472 109.527473,109.578857 
	C109.214485,110.242424 109.073792,110.606598 108.933090,110.970764 
	C108.933083,110.970764 108.542152,111.022583 108.345833,111.040932 
z"/>
<path fill="#D5FAFC" opacity="1.000000" stroke="none" 
	d="
M16.507977,81.025848 
	C16.011448,76.661018 15.514920,72.296181 15.017153,67.469849 
	C15.354745,64.941704 15.693577,62.875072 16.043165,60.405499 
	C17.425184,57.033371 18.796448,54.064178 20.535271,51.382374 
	C20.596169,52.780487 20.289507,53.891220 19.799109,55.332405 
	C18.579575,64.117188 17.543776,72.571518 16.507977,81.025848 
z"/>
<path fill="#F5FBFC" opacity="1.000000" stroke="none" 
	d="
M112.920120,133.222672 
	C112.907608,133.520966 113.015549,133.766251 113.586906,134.286987 
	C114.262825,134.807236 114.595787,134.999054 114.928749,135.190872 
	C114.928749,135.190872 114.940056,135.063202 114.983261,135.373840 
	C115.393944,135.881897 115.761406,136.079346 116.128868,136.276794 
	C117.302826,136.937256 118.476791,137.597717 119.888062,138.434784 
	C118.935417,140.226212 119.099892,143.820663 115.621529,142.215881 
	C112.016609,140.552719 109.669060,137.991409 112.110596,133.331009 
	C112.483940,133.052399 112.920120,133.222672 112.920120,133.222672 
z"/>
<path fill="#F5FBFC" opacity="1.000000" stroke="none" 
	d="
M129.989075,120.079742 
	C128.086441,119.297417 126.580299,118.489716 124.814110,117.456581 
	C125.731483,115.982216 126.908913,114.733276 128.245224,113.315796 
	C129.300415,114.147858 130.425888,115.009499 131.522430,115.906525 
	C132.908676,117.040588 134.271347,118.203453 135.644196,119.353897 
	C133.891327,119.587387 132.138443,119.820877 129.989075,120.079742 
z"/>
<path fill="#7742A2" opacity="1.000000" stroke="none" 
	d="
M112.994446,132.844116 
	C112.920120,133.222672 112.483940,133.052399 112.261475,132.979523 
	C112.039017,132.906662 111.993874,132.439926 111.905014,132.222916 
	C111.748665,129.847534 112.101059,127.560371 111.490120,125.568710 
	C110.931076,123.746262 109.330727,122.243248 108.028801,120.291832 
	C110.036728,121.666107 112.205101,123.348015 114.373482,125.029930 
	C114.095284,125.412827 113.817085,125.795715 113.538887,126.178612 
	C114.280563,126.032127 115.022232,125.885651 115.943298,126.344032 
	C116.158638,128.230026 116.194595,129.511154 116.230560,130.792267 
	C115.176628,131.350037 114.122704,131.907791 112.994446,132.844116 
z"/>
<path fill="#F5FBFC" opacity="1.000000" stroke="none" 
	d="
M118.991165,117.075844 
	C113.979698,120.154465 112.388298,119.671196 108.101318,113.357727 
	C111.619133,114.338081 115.107178,115.671417 118.991165,117.075844 
z"/>
<path fill="#D5FAFC" opacity="1.000000" stroke="none" 
	d="
M58.955666,14.799441 
	C59.841202,14.043705 60.726738,13.287970 61.806572,12.284982 
	C65.398376,11.370984 68.795891,10.704238 72.595940,10.034224 
	C73.568321,10.573816 74.138168,11.116678 74.398811,11.890532 
	C71.739960,12.457705 69.390320,12.793886 66.686325,13.106976 
	C65.213760,13.418310 64.095551,13.752738 62.692291,14.120825 
	C62.110584,14.389800 61.813919,14.625115 61.403862,14.789774 
	C61.290462,14.719118 61.042725,14.819283 60.693939,14.823666 
	C59.881989,14.818514 59.418827,14.808978 58.955666,14.799441 
z"/>
<path fill="#F5FBFC" opacity="1.000000" stroke="none" 
	d="
M129.793564,135.872864 
	C130.409973,133.851685 131.390732,131.989899 132.608780,129.854462 
	C133.105392,130.355927 133.349701,131.136475 133.627136,131.905060 
	C134.219116,133.545013 134.828278,135.178772 135.430389,136.815079 
	C133.672897,136.554153 131.915405,136.293213 129.793564,135.872864 
z"/>
<path fill="#F5FBFC" opacity="1.000000" stroke="none" 
	d="
M142.456589,134.377243 
	C137.457336,134.316299 138.918427,131.916718 141.526291,129.165421 
	C141.922180,130.812698 142.318069,132.459976 142.456589,134.377243 
z"/>
<path fill="#D5FAFC" opacity="1.000000" stroke="none" 
	d="
M35.813129,28.779451 
	C35.876213,28.089771 35.939297,27.400091 36.003304,26.363903 
	C36.722275,25.993261 37.440331,25.969126 38.571739,25.960548 
	C38.985092,25.976105 39.103527,26.091858 39.023727,26.375011 
	C38.889980,27.038805 38.836029,27.419441 38.898956,27.864059 
	C39.015839,27.928038 38.793964,27.779251 38.482380,27.768688 
	C37.438038,28.164881 36.705284,28.571634 35.932793,28.928566 
	C35.893055,28.878740 35.813129,28.779451 35.813129,28.779451 
z"/>
<path fill="#F5FBFC" opacity="1.000000" stroke="none" 
	d="
M142.871078,85.854782 
	C142.630081,84.805222 142.733734,83.780640 142.949905,82.386078 
	C143.113525,83.303986 143.164627,84.591873 142.871078,85.854782 
z"/>
<path fill="#F5FBFC" opacity="1.000000" stroke="none" 
	d="
M70.954575,5.604994 
	C70.713127,5.209216 70.714851,4.815513 70.745064,4.424008 
	C70.745911,4.413003 71.051094,4.425489 71.214363,4.427022 
	C71.210152,4.820473 71.205940,5.213924 70.954575,5.604994 
z"/>
<path fill="#F5FBFC" opacity="1.000000" stroke="none" 
	d="
M139.093613,91.816872 
	C139.023178,91.605530 139.217529,91.305443 139.669159,90.904167 
	C139.737091,91.111359 139.547729,91.419739 139.093613,91.816872 
z"/>
<path fill="#F5FBFC" opacity="1.000000" stroke="none" 
	d="
M122.906387,116.807877 
	C122.823952,117.007729 122.659767,117.044533 122.254425,117.007217 
	C122.283722,116.837013 122.554184,116.740929 122.906387,116.807877 
z"/>
<path fill="#F5FBFC" opacity="1.000000" stroke="none" 
	d="
M139.873108,73.831696 
	C139.678238,73.892387 139.382645,73.714836 139.009354,73.280525 
	C139.211899,73.213661 139.492142,73.403557 139.873108,73.831696 
z"/>
<path fill="#F5FBFC" opacity="1.000000" stroke="none" 
	d="
M137.925446,92.942810 
	C137.858765,92.711945 138.086578,92.371078 138.612427,91.930084 
	C138.680283,92.164238 138.450089,92.498528 137.925446,92.942810 
z"/>
<path fill="#F5FBFC" opacity="1.000000" stroke="none" 
	d="
M111.293137,104.813065 
	C111.165962,104.617714 111.281738,104.224945 111.630539,103.626167 
	C111.754402,103.818657 111.645248,104.217155 111.293137,104.813065 
z"/>
<path fill="#F5FBFC" opacity="1.000000" stroke="none" 
	d="
M110.849960,106.192719 
	C110.681808,106.114258 110.583534,105.653664 110.750488,105.116341 
	C110.983765,105.296600 110.951797,105.553589 110.849960,106.192719 
z"/>
<path fill="#D5FAFC" opacity="1.000000" stroke="none" 
	d="
M38.928314,25.915833 
	C39.021538,25.573227 39.216881,25.326843 39.739990,25.071329 
	C40.022408,25.026247 40.181507,25.188881 40.043549,25.384768 
	C39.682323,25.820230 39.414970,25.990633 39.103527,26.091858 
	C39.103527,26.091858 38.985092,25.976105 38.928314,25.915833 
z"/>
<path fill="#F5FBFC" opacity="1.000000" stroke="none" 
	d="
M110.150772,108.836082 
	C110.008598,108.610680 110.145340,108.200699 110.560493,107.596634 
	C110.702492,107.818871 110.566086,108.235191 110.150772,108.836082 
z"/>
<path fill="#D5FAFC" opacity="1.000000" stroke="none" 
	d="
M39.969276,24.194065 
	C40.196892,23.991936 40.404663,24.015366 40.802227,24.311989 
	C40.721844,24.786413 40.451675,24.987646 40.181507,25.188881 
	C40.181507,25.188881 40.022408,25.026247 39.940598,24.944786 
	C39.858784,24.863325 39.949436,24.419626 39.969276,24.194065 
z"/>
<path fill="#F5FBFC" opacity="1.000000" stroke="none" 
	d="
M109.192673,110.816208 
	C109.073792,110.606598 109.214485,110.242424 109.605797,109.713074 
	C109.721687,109.919151 109.586967,110.290398 109.192673,110.816208 
z"/>
<path fill="#FEFEFE" opacity="1.000000" stroke="none" 
	d="
M97.901680,83.168121 
	C96.931534,83.333176 96.352257,83.378166 95.480026,83.429520 
	C90.423714,82.635567 85.596207,80.925171 80.912567,81.255379 
	C74.428345,81.712547 68.198486,81.501038 62.030197,79.626785 
	C61.329945,79.414009 60.302086,78.123596 60.451935,77.677246 
	C60.883717,76.391083 61.658382,74.469978 62.625179,74.252747 
	C65.642593,73.574730 69.034348,74.272354 69.125626,69.362816 
	C69.179176,66.482399 70.363449,63.620544 71.067062,60.757202 
	C71.177696,60.306984 71.437065,59.893311 72.289459,57.967785 
	C73.536804,60.783981 74.315956,62.543121 75.378510,64.942116 
	C76.712578,64.163963 78.418312,63.169010 79.519310,62.526802 
	C84.903824,65.134987 89.925087,67.572159 94.955215,69.990913 
	C95.243530,70.129555 95.633286,70.053421 95.926559,70.186127 
	C98.987633,71.571259 100.561783,80.172951 97.901680,83.168121 
z"/>
<path fill="#57C1CF" opacity="1.000000" stroke="none" 
	d="
M130.229385,36.794266 
	C136.742096,45.822414 141.005615,55.342888 142.212036,66.625206 
	C138.387680,65.786354 136.634277,64.324257 135.652069,60.860096 
	C129.020950,37.472855 113.768234,23.080379 89.911140,17.864826 
	C87.778023,17.398491 85.836487,16.055813 83.003151,14.750178 
	C88.363876,11.375245 93.021744,12.852856 97.278145,14.068218 
	C110.622375,17.878500 121.641075,25.324898 130.229385,36.794266 
z"/>
<path fill="#4EC0D1" opacity="1.000000" stroke="none" 
	d="
M62.977333,14.087164 
	C64.095551,13.752738 65.213760,13.418310 66.964066,13.364390 
	C69.840401,14.517023 72.084633,15.389148 74.328873,16.261272 
	C74.328873,16.261272 74.147888,16.112883 73.770561,16.107357 
	C70.626015,16.847019 67.858795,17.592203 64.836967,18.531269 
	C63.740002,18.848749 62.897640,18.972349 61.850502,18.823761 
	C60.790604,19.102690 59.935482,19.653807 59.049603,20.402514 
	C59.018845,20.600101 58.987267,20.998787 58.987267,20.998787 
	C58.817532,21.020325 58.647793,21.041862 57.999359,21.079536 
	C57.353848,21.079777 57.187035,21.063885 56.858440,20.814903 
	C56.124176,21.026558 55.551693,21.471302 54.896427,22.149855 
	C54.813644,22.383665 54.654869,22.853638 54.654869,22.853638 
	C54.654869,22.853638 54.317070,22.891066 53.889893,22.967623 
	C53.092354,23.098249 52.721992,23.152319 51.968880,23.175898 
	C49.730576,24.450415 47.875031,25.755424 46.019485,27.060436 
	C45.942875,27.374996 45.774952,27.629251 45.015137,27.921993 
	C44.074017,28.378326 43.633476,28.735870 43.192936,29.093414 
	C39.889534,32.540268 36.586128,35.987122 32.846024,39.877838 
	C30.305708,43.877754 28.202085,47.433804 25.818462,51.181850 
	C25.344778,52.241203 25.151093,53.108566 24.705572,54.200371 
	C24.321257,55.302197 24.188774,56.179581 24.040804,57.041931 
	C24.025316,57.026901 24.058403,57.023312 23.776098,57.225372 
	C23.365557,58.328819 23.237320,59.230198 23.120724,60.141598 
	C23.132366,60.151615 23.161665,60.173649 22.839314,60.350342 
	C20.333981,67.261925 18.429258,74.014610 21.222334,81.297287 
	C21.423923,81.814316 21.685778,81.957314 22.025835,81.957199 
	C22.070343,82.132553 22.114853,82.307899 22.168785,83.125923 
	C23.090134,86.899734 24.002060,90.030861 24.913986,93.161987 
	C24.913986,93.161987 24.933544,93.593826 24.984005,94.165863 
	C25.582813,96.086426 26.131159,97.434952 26.679508,98.783470 
	C26.681726,98.978355 26.683947,99.173241 26.579315,99.906715 
	C26.472034,100.655281 26.471607,100.865257 26.471180,101.075241 
	C25.547203,101.446983 24.623226,101.818718 23.175146,101.879990 
	C21.479160,99.296036 20.307276,97.022537 19.135393,94.749039 
	C19.135393,94.749039 19.143757,94.360954 19.046055,93.890472 
	C18.717945,93.115356 18.487535,92.810715 18.257122,92.506081 
	C18.248785,92.165596 18.240448,91.825111 18.162233,90.887138 
	C17.788898,89.413979 17.485439,88.538307 17.181980,87.662636 
	C17.151638,86.994247 17.121298,86.325867 17.044640,85.074387 
	C16.940378,84.329735 16.882437,84.168159 16.824493,84.006592 
	C16.788906,83.254982 16.753321,82.503372 16.612856,81.388809 
	C17.543776,72.571518 18.579575,64.117188 20.155735,55.271759 
	C21.686996,52.198143 22.677900,49.515617 23.714552,46.839973 
	C23.760302,46.846855 23.826199,46.911804 24.131798,46.749916 
	C24.613476,45.708790 24.789555,44.829548 24.974918,43.959534 
	C24.984205,43.968765 24.950382,43.961750 25.312164,43.913471 
	C26.083948,42.841427 26.493948,41.817661 26.907261,40.515602 
	C26.895885,40.052345 26.881199,39.867386 26.866510,39.682423 
	C26.866510,39.682423 27.173512,39.745953 27.660797,39.728455 
	C28.406849,39.107510 28.665615,38.504055 28.924381,37.900604 
	C28.924381,37.900604 28.981855,37.971207 29.185596,37.862732 
	C29.554688,37.450661 29.720036,37.147072 29.885384,36.843479 
	C29.885384,36.843479 29.816858,36.898533 30.160118,36.879601 
	C31.026400,35.930759 31.549419,35.000851 32.390579,33.997337 
	C33.107697,33.238808 33.506668,32.553883 33.950470,31.885967 
	C33.995296,31.902981 33.899940,31.913078 34.236889,31.902319 
	C35.025879,31.233772 35.477921,30.575985 35.927467,29.960705 
	C35.924973,30.003212 35.894520,29.923544 36.233551,29.925686 
	C37.313046,29.211636 38.053505,28.495443 38.793964,27.779251 
	C38.793964,27.779251 39.015839,27.928038 39.239128,27.805729 
	C40.978485,26.130510 42.494549,24.577599 44.010593,23.012192 
	C44.010574,22.999697 44.028652,23.012638 44.339111,22.983837 
	C45.079712,22.562084 45.509853,22.169136 46.131195,21.542484 
	C47.239933,20.563126 48.157467,19.817469 49.075005,19.071814 
	C49.075005,19.071814 48.986725,19.038126 49.346691,19.061607 
	C50.131123,19.028093 50.555588,18.971100 51.180988,19.132809 
	C54.602192,17.840769 57.822456,16.330027 61.042725,14.819283 
	C61.042725,14.819283 61.290462,14.719118 61.698669,14.764722 
	C62.397030,14.569272 62.687180,14.328218 62.977333,14.087164 
z"/>
<path fill="#4996CD" opacity="1.000000" stroke="none" 
	d="
M76.022797,53.948277 
	C74.913025,54.195023 73.803261,54.441769 72.392761,54.397659 
	C71.985588,53.122612 71.879158,52.138412 71.772728,51.154213 
	C70.187012,51.808357 68.601295,52.462502 67.015579,53.116646 
	C67.153320,53.591404 67.291069,54.066162 67.428818,54.540916 
	C68.648659,54.704311 69.868507,54.867710 71.088348,55.031105 
	C68.743164,59.029953 66.428276,63.047062 64.035927,67.017487 
	C63.228046,68.358269 62.443287,70.396370 61.270275,70.711952 
	C56.884460,71.891907 56.228519,75.761726 56.551556,78.672142 
	C56.982037,82.550606 59.868824,85.403160 64.508377,85.205696 
	C66.454979,85.122849 68.408035,85.191917 70.515968,85.191917 
	C70.115623,90.497635 67.180779,91.378502 63.269012,90.671539 
	C57.581985,89.643761 53.397511,86.709702 51.844631,80.890938 
	C50.364334,75.344131 52.160217,70.845062 56.351578,67.004471 
	C57.828648,65.651024 59.206120,63.811268 59.796841,61.931957 
	C62.721123,52.628685 66.379295,49.553883 76.616592,48.941761 
	C76.042702,50.006485 75.347168,50.622501 74.076973,51.747486 
	C75.895012,51.876160 76.990677,51.875221 78.059975,52.042652 
	C83.347931,52.870640 87.294456,56.155262 87.856461,60.137264 
	C84.816231,58.403534 81.775993,56.669807 78.323799,54.568985 
	C77.282158,54.117355 76.652473,54.032818 76.022797,53.948277 
z"/>
<path fill="#3492DB" opacity="1.000000" stroke="none" 
	d="
M36.022678,67.037422 
	C36.024117,66.579437 36.025558,66.121452 36.479210,65.300598 
	C37.622765,65.459000 38.902412,65.973198 38.908768,66.502686 
	C38.946484,69.644623 38.903336,72.819038 38.483082,75.927887 
	C37.778080,81.143135 40.867195,87.167633 45.392078,89.788826 
	C48.542530,91.613823 52.052429,93.780685 48.159222,98.228271 
	C48.066299,98.334419 49.797024,100.036911 50.677162,100.994835 
	C50.766743,101.135612 50.856327,101.276390 50.970375,102.049301 
	C49.935806,103.515236 48.876785,104.349030 47.817764,105.182831 
	C47.817764,105.182831 48.004982,105.162048 47.943672,104.877045 
	C47.262672,104.411156 46.642979,104.230263 46.023285,104.049377 
	C43.117558,103.318939 40.211834,102.588509 37.124435,101.150879 
	C36.324806,98.967529 35.706848,97.491379 35.088886,96.015236 
	C35.056721,95.846313 35.024559,95.677383 35.307625,95.101288 
	C36.782475,92.214325 38.850334,89.750488 38.894196,87.251129 
	C38.964390,83.250969 37.636398,79.235977 37.006767,75.210464 
	C36.582993,72.501091 36.344215,69.762787 36.022678,67.037422 
z"/>
<path fill="#4F98CB" opacity="1.000000" stroke="none" 
	d="
M100.188446,35.796535 
	C111.315910,40.923351 117.621185,50.131763 121.690590,61.223812 
	C122.851891,64.389191 121.782738,66.325531 117.764854,67.082726 
	C114.642357,53.915764 106.611534,44.472507 94.241653,38.238640 
	C94.053909,37.939907 94.159920,37.823864 94.528625,37.875900 
	C96.366837,36.795963 99.937935,41.452232 99.958725,36.038055 
	C100.035690,35.957924 100.188446,35.796535 100.188446,35.796535 
z"/>
<path fill="#61C1CE" opacity="1.000000" stroke="none" 
	d="
M48.902367,130.102661 
	C40.670887,126.709122 34.600056,120.675697 29.401491,113.724014 
	C28.580509,112.626175 29.054323,110.560074 28.929482,108.941650 
	C30.482723,109.366371 32.401905,109.351387 33.528389,110.288887 
	C39.724842,115.445793 45.727425,120.835648 51.607552,126.518494 
	C50.579834,127.961830 49.741100,129.032242 48.902367,130.102661 
z"/>
<path fill="#4997CE" opacity="1.000000" stroke="none" 
	d="
M87.881409,60.120300 
	C87.294456,56.155262 83.347931,52.870640 78.059975,52.042652 
	C76.990677,51.875221 75.895012,51.876160 74.076973,51.747486 
	C75.347168,50.622501 76.042702,50.006485 76.914795,49.105751 
	C80.634720,49.978371 86.117607,50.106392 87.375488,52.476627 
	C92.063530,61.310287 106.042770,60.339844 106.906181,72.553375 
	C104.571236,71.673248 102.648537,70.386177 100.725845,69.099106 
	C100.427658,69.012329 100.206429,68.831429 99.981575,67.953857 
	C98.414726,66.612976 96.928459,65.874649 95.442184,65.136322 
	C95.442184,65.136322 94.984406,65.327515 94.984406,65.327515 
	C94.984406,65.327515 94.490219,65.283890 94.050201,64.902985 
	C91.691345,63.044270 89.772522,61.566452 87.853691,60.088634 
	C87.853691,60.088634 87.906349,60.103336 87.881409,60.120300 
z"/>
<path fill="#4C97CB" opacity="1.000000" stroke="none" 
	d="
M50.819393,100.615112 
	C49.797024,100.036911 48.066299,98.334419 48.159222,98.228271 
	C52.052429,93.780685 48.542530,91.613823 45.392078,89.788826 
	C40.867195,87.167633 37.778080,81.143135 38.483082,75.927887 
	C38.903336,72.819038 38.946484,69.644623 38.908768,66.502686 
	C38.902412,65.973198 37.622765,65.459000 36.600983,64.977264 
	C37.586754,56.840813 41.479916,50.009907 47.541981,44.365593 
	C47.355045,45.871899 46.939220,47.216331 46.227943,48.380207 
	C43.687386,52.537346 41.046543,56.633198 38.443645,60.752239 
	C38.907631,61.058598 39.371613,61.364956 39.835598,61.671310 
	C40.923695,60.782887 42.011795,59.894463 43.099892,59.006042 
	C41.235264,66.386543 39.246403,73.747864 40.995914,81.476463 
	C41.622559,84.244713 42.125751,86.471718 45.737083,87.409622 
	C51.357296,88.869263 52.977333,93.680573 50.819393,100.615112 
z"/>
<path fill="#46BDD1" opacity="1.000000" stroke="none" 
	d="
M48.911503,130.087769 
	C49.741100,129.032242 50.579834,127.961830 51.804413,126.788284 
	C52.190258,126.685165 52.157665,126.718407 52.241566,127.092422 
	C59.855621,132.301453 67.737488,135.624054 76.957024,133.194580 
	C77.408943,133.179016 77.860870,133.163452 78.757492,133.569031 
	C83.185532,135.877121 86.711029,134.759811 90.037865,132.338867 
	C90.476395,132.237747 90.914932,132.136627 91.692429,132.046051 
	C94.762749,132.056580 97.494110,132.056580 101.090218,132.056580 
	C99.824158,132.885315 98.909126,133.777191 97.816544,134.153320 
	C88.714867,137.286575 79.420929,138.004807 69.939445,136.190521 
	C69.178024,136.044846 68.333130,136.335480 67.269936,136.706757 
	C66.564705,136.985260 66.116554,136.980377 65.264694,136.539398 
	C61.749058,135.150986 58.637135,134.198639 55.525208,133.246307 
	C55.525208,133.246307 55.225235,133.303207 55.051613,132.856827 
	C52.891518,131.631836 50.905045,130.853226 48.918571,130.074631 
	C48.918571,130.074631 48.920635,130.072861 48.911503,130.087769 
z"/>
<path fill="#7D49AA" opacity="1.000000" stroke="none" 
	d="
M83.378395,109.429199 
	C81.762016,108.198936 80.145645,106.968674 78.363342,105.612122 
	C78.208366,106.279129 78.064896,106.896591 77.854752,107.851387 
	C73.008621,99.298317 77.395531,88.544495 87.632858,85.029861 
	C89.183037,85.888557 90.366753,86.671539 91.389778,87.773438 
	C89.222305,89.013855 86.733597,89.465118 85.294197,90.940269 
	C79.788887,96.582329 79.455246,101.369270 83.378395,109.429199 
z"/>
<path fill="#4C97CB" opacity="1.000000" stroke="none" 
	d="
M47.955967,105.487442 
	C48.876785,104.349030 49.935806,103.515236 51.028465,102.292770 
	C56.321560,105.134109 61.676849,108.221771 66.792389,111.665565 
	C68.784370,113.006561 70.236031,115.150154 71.479660,117.477844 
	C62.117710,116.404053 54.434731,112.417763 47.955967,105.487442 
z"/>
<path fill="#3B93D3" opacity="1.000000" stroke="none" 
	d="
M43.274246,58.785542 
	C42.011795,59.894463 40.923695,60.782887 39.835598,61.671310 
	C39.371613,61.364956 38.907631,61.058598 38.443645,60.752239 
	C41.046543,56.633198 43.687386,52.537346 46.227943,48.380207 
	C46.939220,47.216331 47.355045,45.871899 47.841629,44.217453 
	C47.776855,43.824608 47.815487,43.844513 48.082977,43.791016 
	C48.532959,43.434166 48.715454,43.130810 48.897949,42.827454 
	C48.897949,42.827454 48.926025,42.915169 49.143017,42.832100 
	C49.546570,42.450005 49.733128,42.150974 49.919685,41.851944 
	C49.919685,41.851944 49.941944,41.961964 50.234425,41.935535 
	C50.918884,41.476204 51.310863,41.043301 51.702843,40.610397 
	C51.702843,40.610397 51.854424,40.675964 52.062782,40.675209 
	C52.427807,40.349976 52.584476,40.025497 52.741146,39.701015 
	C52.741146,39.701015 52.703785,39.683285 53.027012,39.761414 
	C53.904606,39.550842 54.458973,39.262142 55.243237,38.810196 
	C55.520214,38.287872 55.567295,37.928799 55.614376,37.569729 
	C55.614376,37.569729 55.626175,37.646812 56.038353,37.723259 
	C59.638962,35.976788 62.827389,34.153877 66.015816,32.330971 
	C66.448677,32.205273 66.881538,32.079575 67.814423,32.204708 
	C68.871025,32.628551 69.427605,32.801563 69.989578,33.313225 
	C69.996315,34.102882 69.997658,34.553890 69.623138,35.013031 
	C65.828651,36.676098 62.410038,38.331024 58.656734,40.023193 
	C57.650570,40.828613 56.979088,41.596790 56.307610,42.364967 
	C56.307610,42.364971 56.144154,42.198589 55.968121,42.245872 
	C55.522522,42.728783 55.252960,43.164410 54.983398,43.600044 
	C54.582150,44.020561 54.180897,44.441078 53.231255,45.049820 
	C52.471760,45.546261 52.260662,45.854477 52.049568,46.162697 
	C51.287621,47.047356 50.525669,47.932014 49.138680,48.965340 
	C48.120571,49.841064 47.727509,50.568119 47.334442,51.295174 
	C47.334442,51.295174 47.099876,51.274967 46.855434,51.300636 
	C46.192856,52.314819 45.774719,53.303329 45.356579,54.291840 
	C45.356579,54.291840 45.236385,54.261604 44.942333,54.348343 
	C44.499142,55.117672 44.350006,55.800255 44.200867,56.482841 
	C43.950111,57.176907 43.699356,57.870972 43.274246,58.785542 
z"/>
<path fill="#4F98CB" opacity="1.000000" stroke="none" 
	d="
M58.991421,39.985950 
	C62.410038,38.331024 65.828651,36.676098 69.992035,35.019135 
	C71.636917,35.344578 72.690590,35.473061 73.413147,36.030643 
	C79.922897,41.054092 79.860420,41.014317 86.357140,36.242809 
	C89.380928,34.021992 92.126595,34.494473 94.159920,37.823864 
	C94.159920,37.823864 94.053909,37.939907 94.000771,37.997910 
	C90.710716,37.062321 88.088669,36.821915 85.259827,39.927334 
	C82.317108,43.157764 77.296997,43.418701 74.537155,40.157799 
	C70.631516,35.543079 67.194206,37.351402 63.270473,39.088928 
	C62.063290,39.623505 60.888153,40.230453 59.344292,40.628231 
	C58.990246,40.452202 58.991421,39.985950 58.991421,39.985950 
z"/>
<path fill="#4C97CB" opacity="1.000000" stroke="none" 
	d="
M35.780220,67.363930 
	C36.344215,69.762787 36.582993,72.501091 37.006767,75.210464 
	C37.636398,79.235977 38.964390,83.250969 38.894196,87.251129 
	C38.850334,89.750488 36.782475,92.214325 35.321342,94.843704 
	C38.412903,85.953438 33.207039,76.750450 35.780220,67.363930 
z"/>
<path fill="#4F98CB" opacity="1.000000" stroke="none" 
	d="
M74.468636,26.498919 
	C77.901596,23.038725 82.638786,22.945053 84.934593,26.222387 
	C88.779915,31.711685 95.010506,32.011730 99.974762,35.523048 
	C100.188446,35.796535 100.035690,35.957924 99.583130,35.992538 
	C96.794746,35.211956 94.452507,34.414524 92.125061,33.576065 
	C90.186150,32.877579 87.117226,32.637840 86.534073,31.317848 
	C84.016716,25.619730 79.740257,26.020498 74.880302,26.883255 
	C74.747749,26.750233 74.468636,26.498919 74.468636,26.498919 
z"/>
<path fill="#61C1CE" opacity="1.000000" stroke="none" 
	d="
M76.548576,133.091431 
	C67.737488,135.624054 59.855621,132.301453 52.239315,127.115143 
	C60.148819,128.838654 68.144478,130.913452 76.548576,133.091431 
z"/>
<path fill="#5EBECD" opacity="1.000000" stroke="none" 
	d="
M21.204395,81.066353 
	C18.429258,74.014610 20.333981,67.261925 22.827892,60.702454 
	C23.131084,61.583588 23.123343,62.289303 23.115601,62.995018 
	C23.045973,63.427864 22.976343,63.860710 22.648911,64.950722 
	C22.284632,70.739426 22.178156,75.870964 22.071680,81.002502 
	C22.071680,81.002502 22.005510,81.004417 21.811321,81.025742 
	C21.617130,81.047073 21.204395,81.066353 21.204395,81.066353 
z"/>
<path fill="#D5FAFC" opacity="1.000000" stroke="none" 
	d="
M26.098465,50.989857 
	C28.202085,47.433804 30.305708,43.877754 32.720467,40.187866 
	C30.975985,44.336514 28.920361,48.619003 26.494747,52.636612 
	C26.115995,51.911110 26.107229,51.450481 26.098465,50.989857 
z"/>
<path fill="#D5FAFC" opacity="1.000000" stroke="none" 
	d="
M22.354080,80.709854 
	C22.178156,75.870964 22.284632,70.739426 22.645281,65.279999 
	C22.811796,70.107140 22.724136,75.262169 22.354080,80.709854 
z"/>
<path fill="#7D49AA" opacity="1.000000" stroke="none" 
	d="
M83.048965,115.353531 
	C86.831848,116.006096 90.800194,116.959488 95.173256,118.078911 
	C90.854225,120.284279 87.027672,118.048645 83.048965,115.353531 
z"/>
<path fill="#4F98CB" opacity="1.000000" stroke="none" 
	d="
M65.662621,32.314720 
	C62.827389,34.153877 59.638962,35.976788 56.068188,37.698151 
	C58.893703,35.830555 62.101562,34.064514 65.662621,32.314720 
z"/>
<path fill="#4996CD" opacity="1.000000" stroke="none" 
	d="
M100.825317,69.436638 
	C102.648537,70.386177 104.571236,71.673248 106.896881,72.942719 
	C107.469337,73.746651 107.638840,74.568184 107.340881,75.705101 
	C106.428207,76.061028 105.982994,76.101570 105.537788,76.142105 
	C104.000122,74.019463 102.462456,71.896812 100.825317,69.436638 
z"/>
<path fill="#61C1CE" opacity="1.000000" stroke="none" 
	d="
M89.630127,132.270233 
	C86.711029,134.759811 83.185532,135.877121 79.089256,133.645294 
	C82.391670,132.934128 85.807037,132.567856 89.630127,132.270233 
z"/>
<path fill="#4997CE" opacity="1.000000" stroke="none" 
	d="
M71.322205,54.986801 
	C69.868507,54.867710 68.648659,54.704311 67.428818,54.540916 
	C67.291069,54.066162 67.153320,53.591404 67.015579,53.116646 
	C68.601295,52.462502 70.187012,51.808357 71.772728,51.154213 
	C71.879158,52.138412 71.985588,53.122612 72.048027,54.444138 
	C72.004028,54.781471 71.556061,54.942493 71.322205,54.986801 
z"/>
<path fill="#5ABECC" opacity="1.000000" stroke="none" 
	d="
M74.598396,16.216377 
	C72.084633,15.389148 69.840401,14.517023 67.318420,13.387482 
	C69.390320,12.793886 71.739960,12.457705 74.491707,12.174118 
	C75.179573,12.666110 75.465332,13.105511 75.845146,14.022057 
	C75.939201,14.499201 76.006500,14.993309 76.006500,14.993309 
	C75.626976,15.386035 75.247444,15.778760 74.598396,16.216377 
z"/>
<path fill="#D5FAFC" opacity="1.000000" stroke="none" 
	d="
M62.055283,19.095949 
	C62.897640,18.972349 63.740002,18.848749 65.247650,18.476433 
	C68.629677,17.881670 71.346405,17.535625 74.063133,17.189581 
	C70.353844,18.146202 66.644547,19.102823 62.453705,20.018417 
	C61.972157,19.977388 61.859901,19.850592 61.914635,19.663456 
	C61.969368,19.476318 62.055283,19.095949 62.055283,19.095949 
z"/>
<path fill="#7D49AA" opacity="1.000000" stroke="none" 
	d="
M97.294189,118.458282 
	C99.681458,116.343697 102.268204,112.292091 105.916191,117.790955 
	C103.193169,118.270844 100.454765,118.372559 97.294189,118.458282 
z"/>
<path fill="#4996CD" opacity="1.000000" stroke="none" 
	d="
M87.897064,60.455826 
	C89.772522,61.566452 91.691345,63.044270 93.821838,64.807037 
	C92.610130,65.240822 91.186760,65.389648 89.541039,65.561729 
	C88.960442,63.842815 88.450439,62.332916 87.897064,60.455826 
z"/>
<path fill="#61C1CE" opacity="1.000000" stroke="none" 
	d="
M55.778915,133.516846 
	C58.637135,134.198639 61.749058,135.150986 64.942970,136.438385 
	C62.027508,135.778107 59.030064,134.782761 55.778915,133.516846 
z"/>
<path fill="#4F98CB" opacity="1.000000" stroke="none" 
	d="
M69.984184,32.974579 
	C69.427605,32.801563 68.871025,32.628551 68.154930,32.203278 
	C69.644882,30.555935 71.294350,29.160860 73.337036,27.735331 
	C73.730255,27.704876 74.007416,28.005661 73.998474,28.371567 
	C72.654427,30.149841 71.319305,31.562210 69.984184,32.974579 
z"/>
<path fill="#D5FAFC" opacity="1.000000" stroke="none" 
	d="
M19.084223,95.170868 
	C20.307276,97.022537 21.479160,99.296036 22.791756,101.894249 
	C22.134476,102.214966 21.336483,102.210968 20.279663,102.095306 
	C19.691578,99.853333 19.362316,97.723015 19.084223,95.170868 
z"/>
<path fill="#D5FAFC" opacity="1.000000" stroke="none" 
	d="
M24.950886,92.737610 
	C24.002060,90.030861 23.090134,86.899734 22.247231,83.385704 
	C23.206762,86.106277 24.097273,89.209747 24.950886,92.737610 
z"/>
<path fill="#5ABECC" opacity="1.000000" stroke="none" 
	d="
M74.161613,16.977617 
	C71.346405,17.535625 68.629677,17.881670 65.502258,18.282553 
	C67.858795,17.592203 70.626015,16.847019 73.841415,16.200485 
	C74.289604,16.299137 74.260094,16.765654 74.161613,16.977617 
z"/>
<path fill="#61C1CE" opacity="1.000000" stroke="none" 
	d="
M49.078735,130.379578 
	C50.905045,130.853226 52.891518,131.631836 54.917595,132.783722 
	C53.051098,132.332840 51.144997,131.508682 49.078735,130.379578 
z"/>
<path fill="#4C97CB" opacity="1.000000" stroke="none" 
	d="
M34.972382,96.307861 
	C35.706848,97.491379 36.324806,98.967529 36.910568,100.853081 
	C36.204205,99.708488 35.530041,98.154488 34.972382,96.307861 
z"/>
<path fill="#5ABECC" opacity="1.000000" stroke="none" 
	d="
M46.262932,27.032104 
	C47.875031,25.755424 49.730576,24.450415 51.783653,23.397896 
	C51.600224,24.075012 51.219261,24.499638 50.838303,24.924267 
	C50.838303,24.924267 50.407967,25.017130 49.971832,25.132915 
	C49.216915,25.390087 49.023281,25.631781 48.954796,25.973783 
	C48.954796,25.973783 48.999680,26.000484 48.698311,26.006861 
	C47.930134,26.341434 47.463322,26.669632 46.996510,26.997829 
	C46.996510,26.997829 46.506374,27.003775 46.262932,27.032104 
z"/>
<path fill="#D5FAFC" opacity="1.000000" stroke="none" 
	d="
M26.799042,98.512222 
	C26.131159,97.434952 25.582813,96.086426 25.059387,94.368439 
	C25.695730,95.412971 26.307152,96.826965 26.799042,98.512222 
z"/>
<path fill="#4996CD" opacity="1.000000" stroke="none" 
	d="
M95.668243,65.403427 
	C96.928459,65.874649 98.414726,66.612976 99.926361,67.741821 
	C98.599243,67.311737 97.246765,66.491135 95.668243,65.403427 
z"/>
<path fill="#4C97CB" opacity="1.000000" stroke="none" 
	d="
M58.656734,40.023193 
	C58.991421,39.985950 58.990246,40.452202 58.987000,40.685230 
	C58.295990,41.367569 57.608219,41.816883 56.614029,42.315582 
	C56.979088,41.596790 57.650570,40.828613 58.656734,40.023193 
z"/>
<path fill="#4C97CB" opacity="1.000000" stroke="none" 
	d="
M45.641060,54.155224 
	C45.774719,53.303329 46.192856,52.314819 46.972229,51.285946 
	C46.864162,52.169926 46.394852,53.094265 45.641060,54.155224 
z"/>
<path fill="#D5FAFC" opacity="1.000000" stroke="none" 
	d="
M51.203110,24.952435 
	C51.219261,24.499638 51.600224,24.075012 52.166409,23.428387 
	C52.721992,23.152319 53.092354,23.098249 53.744812,23.056107 
	C53.207245,23.705557 52.387585,24.343081 51.203110,24.952435 
z"/>
<path fill="#5ABECC" opacity="1.000000" stroke="none" 
	d="
M54.979210,21.916042 
	C55.551693,21.471302 56.124176,21.026558 56.809784,21.037045 
	C56.922913,21.492275 56.837845,21.939251 56.837845,21.939251 
	C56.837845,21.939251 56.413616,21.987537 55.958378,21.995859 
	C55.328499,21.974802 55.153854,21.945421 54.979210,21.916042 
z"/>
<path fill="#4C97CB" opacity="1.000000" stroke="none" 
	d="
M46.198753,104.261688 
	C46.642979,104.230263 47.262672,104.411156 47.852158,104.901253 
	C47.339371,104.964973 46.856796,104.719490 46.198753,104.261688 
z"/>
<path fill="#4C97CB" opacity="1.000000" stroke="none" 
	d="
M47.615273,51.183243 
	C47.727509,50.568119 48.120571,49.841064 48.877785,49.102165 
	C48.793324,49.750648 48.344711,50.410980 47.615273,51.183243 
z"/>
<path fill="#4C97CB" opacity="1.000000" stroke="none" 
	d="
M55.013340,38.973442 
	C54.458973,39.262142 53.904606,39.550842 53.023621,39.741013 
	C53.260925,39.071339 53.824844,38.500191 54.696976,38.154472 
	C55.007908,38.577755 55.010624,38.775600 55.013340,38.973442 
z"/>
<path fill="#4997CE" opacity="1.000000" stroke="none" 
	d="
M76.143677,54.226280 
	C76.652473,54.032818 77.282158,54.117355 77.952988,54.470215 
	C77.417618,54.660450 76.841087,54.582371 76.143677,54.226280 
z"/>
<path fill="#D5FAFC" opacity="1.000000" stroke="none" 
	d="
M59.326309,21.013954 
	C58.987267,20.998787 59.018845,20.600101 59.398033,20.361414 
	C60.471447,20.032015 61.165672,19.941303 61.859901,19.850592 
	C61.859901,19.850592 61.972157,19.977388 62.026436,20.043673 
	C61.275593,20.416346 60.470470,20.722734 59.326309,21.013954 
z"/>
<path fill="#5EBECD" opacity="1.000000" stroke="none" 
	d="
M25.818464,51.181850 
	C26.107229,51.450481 26.115995,51.911110 26.164986,52.715935 
	C26.205210,53.060135 26.017515,53.463707 25.783058,53.730858 
	C25.548603,53.998013 25.147184,54.135635 25.100565,54.094727 
	C25.053946,54.053818 24.957405,53.975925 24.957405,53.975925 
	C25.151093,53.108566 25.344778,52.241203 25.818464,51.181850 
z"/>
<path fill="#5EBECD" opacity="1.000000" stroke="none" 
	d="
M24.056292,57.056961 
	C24.188774,56.179581 24.321257,55.302197 24.705570,54.200371 
	C24.957405,53.975925 25.053946,54.053818 25.079327,54.407677 
	C25.109333,55.179180 25.113958,55.596832 25.118582,56.014481 
	C25.118582,56.014481 24.966745,56.412952 24.728973,56.678909 
	C24.491199,56.944866 24.056292,57.056961 24.056292,57.056961 
z"/>
<path fill="#D5FAFC" opacity="1.000000" stroke="none" 
	d="
M24.040804,57.041931 
	C24.056292,57.056961 24.491199,56.944866 24.709171,56.891197 
	C24.824160,57.761600 24.721178,58.685673 24.336899,59.830742 
	C24.055603,60.051743 23.952425,59.957058 23.952808,59.590069 
	C23.988262,58.489822 24.023333,57.756569 24.058403,57.023312 
	C24.058403,57.023312 24.025316,57.026901 24.040804,57.041931 
z"/>
<path fill="#5ABECC" opacity="1.000000" stroke="none" 
	d="
M43.490662,29.069805 
	C43.633476,28.735870 44.074017,28.378326 44.809921,28.030674 
	C44.666321,28.375774 44.227356,28.710985 43.490662,29.069805 
z"/>
<path fill="#D5FAFC" opacity="1.000000" stroke="none" 
	d="
M23.352114,62.786903 
	C23.123343,62.289303 23.131084,61.583588 23.150246,60.525761 
	C23.161665,60.173649 23.132366,60.151615 23.333328,60.108181 
	C23.534292,60.064747 23.952425,59.957058 23.952425,59.957058 
	C23.952425,59.957058 24.055603,60.051743 24.109516,60.099190 
	C23.971827,60.957355 23.780228,61.768074 23.352114,62.786903 
z"/>
<path fill="#7D49AA" opacity="1.000000" stroke="none" 
	d="
M77.732544,108.473389 
	C78.130043,108.632828 78.548836,109.137917 78.990417,110.004623 
	C78.593407,109.850510 78.173615,109.334778 77.732544,108.473389 
z"/>
<path fill="#7D49AA" opacity="1.000000" stroke="none" 
	d="
M79.472603,111.267166 
	C79.938408,111.409134 80.411888,111.907867 80.889603,112.773987 
	C80.422646,112.635559 79.951462,112.129753 79.472603,111.267166 
z"/>
<path fill="#7D49AA" opacity="1.000000" stroke="none" 
	d="
M80.869843,113.315338 
	C81.185303,113.368736 81.540878,113.662628 81.948074,114.192749 
	C81.636452,114.137924 81.273201,113.846878 80.869843,113.315338 
z"/>
<path fill="#D5FAFC" opacity="1.000000" stroke="none" 
	d="
M26.654335,101.046181 
	C26.471607,100.865257 26.472034,100.655281 26.657631,100.188385 
	C26.841028,100.293358 26.839258,100.655235 26.654335,101.046181 
z"/>
<path fill="#4C97CB" opacity="1.000000" stroke="none" 
	d="
M55.224091,43.520096 
	C55.252960,43.164410 55.522522,42.728783 56.070885,42.301010 
	C56.054714,42.685963 55.759747,43.063057 55.224091,43.520096 
z"/>
<path fill="#4C97CB" opacity="1.000000" stroke="none" 
	d="
M44.457596,56.268261 
	C44.350006,55.800255 44.499142,55.117672 44.996609,54.318439 
	C45.134735,54.819088 44.924530,55.436386 44.457596,56.268261 
z"/>
<path fill="#4C97CB" opacity="1.000000" stroke="none" 
	d="
M51.402637,40.630577 
	C51.310863,41.043301 50.918884,41.476204 50.194492,41.896103 
	C50.275532,41.472317 50.688980,41.061539 51.402637,40.630577 
z"/>
<path fill="#D5FAFC" opacity="1.000000" stroke="none" 
	d="
M47.300522,26.990543 
	C47.463322,26.669632 47.930134,26.341434 48.689163,25.982407 
	C48.522438,26.295467 48.063488,26.639360 47.300522,26.990543 
z"/>
<path fill="#4997CE" opacity="1.000000" stroke="none" 
	d="
M105.742035,76.343307 
	C105.982994,76.101570 106.428207,76.061028 107.204620,76.004868 
	C107.005974,76.174339 106.476120,76.359421 105.742035,76.343307 
z"/>
<path fill="#D5FAFC" opacity="1.000000" stroke="none" 
	d="
M25.352364,55.824936 
	C25.113958,55.596832 25.109333,55.179180 25.125946,54.448586 
	C25.147184,54.135635 25.548603,53.998013 25.755653,53.951706 
	C25.837185,54.482067 25.711666,55.058727 25.352364,55.824936 
z"/>
<path fill="#D5FAFC" opacity="1.000000" stroke="none" 
	d="
M54.896427,22.149853 
	C55.153854,21.945421 55.328499,21.974802 55.759682,22.073929 
	C55.746040,22.372684 55.475857,22.601696 54.930275,22.842171 
	C54.654869,22.853638 54.813644,22.383665 54.896427,22.149853 
z"/>
<path fill="#D5FAFC" opacity="1.000000" stroke="none" 
	d="
M57.073502,21.905289 
	C56.837845,21.939251 56.922913,21.492275 56.971569,21.270134 
	C57.187035,21.063885 57.353848,21.079777 57.760139,21.172504 
	C57.850449,21.546516 57.620296,21.753847 57.073502,21.905289 
z"/>
<path fill="#D5FAFC" opacity="1.000000" stroke="none" 
	d="
M76.176079,14.909596 
	C76.006500,14.993309 75.939201,14.499201 75.972931,14.252228 
	C76.119667,14.278798 76.232666,14.552341 76.176079,14.909596 
z"/>
<path fill="#4C97CB" opacity="1.000000" stroke="none" 
	d="
M49.661369,41.932129 
	C49.733128,42.150974 49.546570,42.450005 49.097538,42.824875 
	C49.024399,42.604584 49.213726,42.308449 49.661369,41.932129 
z"/>
<path fill="#4C97CB" opacity="1.000000" stroke="none" 
	d="
M48.634392,42.901047 
	C48.715454,43.130810 48.532959,43.434166 48.085705,43.812214 
	C48.004238,43.582813 48.187534,43.278725 48.634392,42.901047 
z"/>
<path fill="#4C97CB" opacity="1.000000" stroke="none" 
	d="
M52.306961,46.056774 
	C52.260662,45.854477 52.471760,45.546261 52.960724,45.159752 
	C53.013844,45.371258 52.789097,45.661053 52.306961,46.056774 
z"/>
<path fill="#4C97CB" opacity="1.000000" stroke="none" 
	d="
M52.479912,39.757114 
	C52.584476,40.025497 52.427807,40.349976 51.980392,40.680786 
	C51.865993,40.395817 52.042339,40.104515 52.479912,39.757114 
z"/>
<path fill="#4F98CB" opacity="1.000000" stroke="none" 
	d="
M55.243237,38.810192 
	C55.010624,38.775600 55.007908,38.577755 55.004673,38.082279 
	C55.004158,37.784649 55.275131,37.572098 55.444756,37.570915 
	C55.567295,37.928799 55.520214,38.287872 55.243237,38.810192 
z"/>
<path fill="#D5FAFC" opacity="1.000000" stroke="none" 
	d="
M21.222334,81.297287 
	C21.204395,81.066353 21.617130,81.047073 21.823589,81.056488 
	C22.030046,81.065903 22.040447,81.511719 22.033142,81.734459 
	C21.685778,81.957314 21.423923,81.814316 21.222334,81.297287 
z"/>
<path fill="#4F98CB" opacity="1.000000" stroke="none" 
	d="
M73.610626,27.539011 
	C73.638344,27.109529 73.836479,26.892221 74.277023,26.610071 
	C74.468636,26.498919 74.747749,26.750233 74.765350,27.096558 
	C74.581703,27.709383 74.323196,27.896976 74.007416,28.005661 
	C74.007416,28.005661 73.730255,27.704876 73.610626,27.539011 
z"/>
<path fill="#D5FAFC" opacity="1.000000" stroke="none" 
	d="
M49.174377,25.914715 
	C49.023281,25.631781 49.216915,25.390087 49.774658,25.230762 
	C49.882202,25.499521 49.675655,25.713795 49.174377,25.914715 
z"/>
<path fill="#FAF4FC" opacity="1.000000" stroke="none" 
	d="
M83.363953,109.523346 
	C79.455246,101.369270 79.788887,96.582329 85.294197,90.940269 
	C86.733597,89.465118 89.222305,89.013855 91.610695,88.031921 
	C98.844521,87.488815 103.691826,90.271881 105.851166,96.905441 
	C106.379257,98.527748 105.972885,100.454231 106.052948,102.622284 
	C104.526543,105.811188 102.943329,108.618690 101.178345,111.708755 
	C100.184792,112.384735 99.373001,112.778145 98.191269,113.379616 
	C97.821342,113.587685 97.540077,113.895836 97.367889,113.752327 
	C96.810760,113.743385 96.425812,113.877953 95.613724,113.977203 
	C93.476074,113.882835 91.765549,113.823799 90.055031,113.764771 
	C89.383179,113.458473 88.711327,113.152176 87.528793,112.578400 
	C86.388023,111.989670 85.757942,111.668419 85.127853,111.347160 
	C85.172012,111.128189 85.094101,110.968773 84.593979,110.581787 
	C83.925171,110.102516 83.556488,109.910370 83.187805,109.718224 
	C83.187805,109.718224 83.349503,109.617500 83.363953,109.523346 
M99.281433,94.866196 
	C99.718887,94.503731 100.593742,93.981483 100.528419,93.802673 
	C99.488426,90.955574 94.385132,89.612656 90.740288,91.744812 
	C92.376862,92.275665 93.522369,92.593300 94.626152,93.019096 
	C95.962090,93.534454 97.262741,94.141296 99.281433,94.866196 
z"/>
<path fill="#F6ECF9" opacity="1.000000" stroke="none" 
	d="
M126.143967,87.906616 
	C122.743195,84.395622 122.614632,80.757744 125.419693,77.473030 
	C128.010178,74.439598 131.426392,74.385284 134.804489,76.529465 
	C138.327957,78.765915 138.728653,82.308907 137.479614,85.586105 
	C136.026779,89.398064 130.982971,90.272949 126.143967,87.906616 
z"/>
<path fill="#F9FBFB" opacity="1.000000" stroke="none" 
	d="
M126.844055,126.011116 
	C126.934280,126.447845 127.024506,126.884583 126.737946,127.711929 
	C125.234131,129.729309 124.107094,131.356079 122.980057,132.982864 
	C122.539215,133.048615 122.098373,133.114365 121.260750,132.733917 
	C119.556816,130.176498 118.249657,128.065308 116.942490,125.954102 
	C117.179535,125.430038 117.416588,124.905975 118.343338,124.212181 
	C121.124016,123.977226 123.214996,123.912003 125.305969,123.846779 
	C125.601517,123.938034 125.816803,124.122810 126.052567,124.857452 
	C126.383560,125.546242 126.613808,125.778679 126.844055,126.011116 
z"/>
<path fill="#EFD5F8" opacity="1.000000" stroke="none" 
	d="
M116.724815,125.996384 
	C118.249657,128.065308 119.556816,130.176498 120.936005,132.640945 
	C119.951775,132.684265 118.895515,132.374344 117.388664,131.759079 
	C116.646820,131.252350 116.355576,131.050949 116.064323,130.849564 
	C116.064323,130.849564 116.168701,130.886017 116.199631,130.839142 
	C116.194595,129.511154 116.158638,128.230026 116.104958,126.565125 
	C116.087234,126.181358 116.507133,126.038658 116.724815,125.996384 
z"/>
<path fill="#EFD5F8" opacity="1.000000" stroke="none" 
	d="
M123.343781,132.986359 
	C124.107094,131.356079 125.234131,129.729309 126.696602,128.046066 
	C125.923866,129.656357 124.815689,131.323090 123.343781,132.986359 
z"/>
<path fill="#EFD5F8" opacity="1.000000" stroke="none" 
	d="
M125.095062,123.557381 
	C123.214996,123.912003 121.124016,123.977226 118.592606,124.057816 
	C120.396164,123.804787 122.640167,123.536385 125.095062,123.557381 
z"/>
<path fill="#7D49AA" opacity="1.000000" stroke="none" 
	d="
M90.273262,114.101654 
	C91.765549,113.823799 93.476074,113.882835 95.988289,113.945984 
	C97.040016,113.932007 97.290047,113.913925 97.540077,113.895836 
	C97.540077,113.895836 97.821342,113.587685 98.032005,113.603210 
	C95.658943,113.892006 93.075218,114.165276 90.273262,114.101654 
z"/>
<path fill="#7D49AA" opacity="1.000000" stroke="none" 
	d="
M85.235947,111.729706 
	C85.757942,111.668419 86.388023,111.989670 87.245575,112.586212 
	C86.763367,112.611740 86.053703,112.362000 85.235947,111.729706 
z"/>
<path fill="#7742A2" opacity="1.000000" stroke="none" 
	d="
M115.982391,136.002686 
	C115.761406,136.079346 115.393944,135.881897 114.919678,135.381775 
	C115.153893,135.295593 115.494904,135.512085 115.982391,136.002686 
z"/>
<path fill="#7742A2" opacity="1.000000" stroke="none" 
	d="
M114.808357,134.912689 
	C114.595787,134.999054 114.262825,134.807236 113.781296,134.358063 
	C113.984474,134.278625 114.336220,134.456558 114.808357,134.912689 
z"/>
<path fill="#EFD5F8" opacity="1.000000" stroke="none" 
	d="
M126.839539,125.750298 
	C126.613808,125.778679 126.383560,125.546242 126.116013,125.065712 
	C126.330818,125.041573 126.582916,125.265526 126.839539,125.750298 
z"/>
<path fill="#7742A2" opacity="1.000000" stroke="none" 
	d="
M116.163849,131.107941 
	C116.355576,131.050949 116.646820,131.252350 117.054321,131.705368 
	C116.868164,131.760101 116.565765,131.563202 116.163849,131.107941 
z"/>
<path fill="#7D49AA" opacity="1.000000" stroke="none" 
	d="
M83.297432,110.034836 
	C83.556488,109.910370 83.925171,110.102516 84.451828,110.579376 
	C84.208885,110.693214 83.807968,110.522331 83.297432,110.034836 
z"/>
<path fill="#5ABECC" opacity="1.000000" stroke="none" 
	d="
M23.668804,46.833096 
	C22.677900,49.515617 21.686996,52.198143 20.339470,54.941307 
	C20.289507,53.891220 20.596169,52.780487 20.899500,51.320160 
	C20.896168,50.970558 21.051453,50.590000 21.310968,50.190346 
	C22.269924,48.804825 22.969364,47.818962 23.668804,46.833096 
z"/>
<path fill="#D5FAFC" opacity="1.000000" stroke="none" 
	d="
M23.714554,46.839973 
	C22.969364,47.818962 22.269924,48.804825 21.330805,49.985794 
	C21.794596,48.148129 22.498068,46.115356 23.612658,44.050026 
	C24.023777,44.017464 24.147467,44.143272 24.092283,44.488403 
	C23.966801,45.526291 23.896500,46.219048 23.826199,46.911804 
	C23.826199,46.911804 23.760302,46.846855 23.714554,46.839973 
z"/>
<path fill="#D5FAFC" opacity="1.000000" stroke="none" 
	d="
M32.945808,31.840227 
	C33.674961,30.869480 34.404114,29.898735 35.473198,28.853722 
	C35.813129,28.779451 35.893055,28.878740 35.893730,29.163250 
	C35.894402,29.447762 35.894520,29.923544 35.894520,29.923544 
	C35.894520,29.923544 35.924973,30.003212 35.655014,30.074005 
	C34.890018,30.734222 34.394978,31.323650 33.899940,31.913078 
	C33.899940,31.913078 33.995296,31.902981 33.710659,31.883177 
	C33.426022,31.863373 32.945808,31.840227 32.945808,31.840227 
z"/>
<path fill="#5ABECC" opacity="1.000000" stroke="none" 
	d="
M26.903948,40.793896 
	C26.493948,41.817661 26.083948,42.841427 25.283432,43.667496 
	C24.892918,43.469799 24.777933,42.987541 24.777933,42.987541 
	C24.777933,42.987541 24.980982,42.600563 25.249285,42.253296 
	C25.656507,41.595749 25.795427,41.285469 25.934349,40.975189 
	C25.934349,40.975189 26.001945,40.979881 26.218904,40.937950 
	C26.435863,40.896019 26.903948,40.793896 26.903948,40.793896 
z"/>
<path fill="#5ABECC" opacity="1.000000" stroke="none" 
	d="
M32.072441,34.070946 
	C31.549419,35.000851 31.026400,35.930759 30.140472,36.840286 
	C29.841347,36.457664 29.905127,36.095421 30.250607,35.328533 
	C30.692942,34.619411 30.853573,34.314938 31.014206,34.010464 
	C31.014206,34.010464 30.999334,34.000774 31.238369,33.999950 
	C31.477406,33.999126 31.940496,33.941669 31.973419,33.974056 
	C32.006340,34.006443 32.072441,34.070946 32.072441,34.070946 
z"/>
<path fill="#5ABECC" opacity="1.000000" stroke="none" 
	d="
M32.859261,32.086647 
	C32.945808,31.840227 33.426022,31.863373 33.665833,31.866165 
	C33.506668,32.553883 33.107697,33.238808 32.390579,33.997337 
	C32.072441,34.070946 32.006340,34.006443 31.991936,33.737160 
	C31.977533,33.467880 31.990782,32.992191 31.990780,32.992191 
	C32.251423,32.772480 32.512066,32.552773 32.859261,32.086647 
z"/>
<path fill="#D5FAFC" opacity="1.000000" stroke="none" 
	d="
M26.907261,40.515602 
	C26.903948,40.793896 26.435863,40.896019 26.196697,40.912361 
	C26.141870,40.455341 26.326208,39.981972 26.688530,39.595512 
	C26.881199,39.867386 26.895885,40.052345 26.907261,40.515602 
z"/>
<path fill="#5ABECC" opacity="1.000000" stroke="none" 
	d="
M28.644268,38.052128 
	C28.665615,38.504055 28.406849,39.107510 27.804737,39.790527 
	C27.762312,39.314610 28.063232,38.759129 28.644268,38.052128 
z"/>
<path fill="#D5FAFC" opacity="1.000000" stroke="none" 
	d="
M25.709007,41.106705 
	C25.795427,41.285469 25.656507,41.595749 25.291800,42.038963 
	C25.205229,41.860672 25.344446,41.549446 25.709007,41.106705 
z"/>
<path fill="#D5FAFC" opacity="1.000000" stroke="none" 
	d="
M24.592831,43.094395 
	C24.777933,42.987541 24.892918,43.469799 24.921650,43.715775 
	C24.950382,43.961750 24.984205,43.968765 24.769728,44.004730 
	C24.555250,44.040699 24.147467,44.143272 24.147467,44.143272 
	C24.147467,44.143272 24.023777,44.017464 23.962872,43.951790 
	C24.021215,43.621380 24.189802,43.393089 24.592831,43.094395 
z"/>
<path fill="#5ABECC" opacity="1.000000" stroke="none" 
	d="
M29.630501,36.929825 
	C29.720036,37.147072 29.554688,37.450661 29.141094,37.853176 
	C29.053772,37.640125 29.214695,37.328148 29.630501,36.929825 
z"/>
<path fill="#D5FAFC" opacity="1.000000" stroke="none" 
	d="
M30.772842,34.127243 
	C30.853573,34.314938 30.692942,34.619411 30.302849,35.055279 
	C30.226088,34.872452 30.378784,34.558235 30.772842,34.127243 
z"/>
<path fill="#D5FAFC" opacity="1.000000" stroke="none" 
	d="
M31.762987,33.092918 
	C31.990782,32.992191 31.977533,33.467880 31.959015,33.704773 
	C31.940496,33.941669 31.477406,33.999126 31.244289,34.007744 
	C31.072945,33.670208 31.247618,33.395969 31.762987,33.092918 
z"/>
<path fill="#D5FAFC" opacity="1.000000" stroke="none" 
	d="
M17.119621,88.036850 
	C17.485439,88.538307 17.788898,89.413979 18.073555,90.644897 
	C17.722258,90.137123 17.389761,89.274101 17.119621,88.036850 
z"/>
<path fill="#D5FAFC" opacity="1.000000" stroke="none" 
	d="
M16.681084,84.111534 
	C16.882437,84.168159 16.940378,84.329735 16.970982,84.747322 
	C16.808319,84.741051 16.672997,84.478767 16.681084,84.111534 
z"/>
<path fill="#D5FAFC" opacity="1.000000" stroke="none" 
	d="
M18.252392,92.808594 
	C18.487535,92.810715 18.717945,93.115356 18.976574,93.709251 
	C18.752417,93.702705 18.500038,93.406914 18.252392,92.808594 
z"/>
<path fill="#5ABECC" opacity="1.000000" stroke="none" 
	d="
M60.693939,14.823667 
	C57.822456,16.330027 54.602192,17.840769 51.349709,18.898724 
	C51.922024,17.983807 52.526558,17.521681 53.131096,17.059555 
	C53.131096,17.059557 53.578606,16.965635 54.021782,16.852322 
	C54.801121,16.633764 55.008553,16.409439 55.087250,16.066031 
	C55.087250,16.066031 55.011612,16.020782 55.345856,16.048435 
	C56.225529,15.775103 56.770954,15.474118 57.316380,15.173132 
	C57.688171,15.119455 58.059963,15.065782 58.693710,14.905775 
	C59.418827,14.808978 59.881989,14.818514 60.693939,14.823667 
z"/>
<path fill="#5ABECC" opacity="1.000000" stroke="none" 
	d="
M44.010612,23.024689 
	C42.494549,24.577599 40.978485,26.130510 39.122250,27.741751 
	C38.836029,27.419441 38.889980,27.038805 39.023727,26.375011 
	C39.414970,25.990633 39.682323,25.820230 40.043549,25.384766 
	C40.451675,24.987646 40.721844,24.786413 41.112251,24.359455 
	C41.702477,23.872702 42.172470,23.611671 43.066513,23.166868 
	C43.663918,22.996960 43.837265,23.010822 44.010612,23.024689 
z"/>
<path fill="#D5FAFC" opacity="1.000000" stroke="none" 
	d="
M48.705353,19.042479 
	C48.157467,19.817469 47.239933,20.563126 45.836807,21.604078 
	C44.962975,21.995152 44.574730,22.090929 44.115631,22.118055 
	C44.044777,22.049406 43.899799,21.915571 43.899799,21.915571 
	C45.378433,20.948095 46.857067,19.980619 48.705353,19.042479 
z"/>
<path fill="#D5FAFC" opacity="1.000000" stroke="none" 
	d="
M52.740372,17.032824 
	C52.526558,17.521681 51.922024,17.983807 51.148773,18.680019 
	C50.555588,18.971100 50.131123,19.028093 49.385742,19.089157 
	C50.159767,18.397516 51.254707,17.701803 52.740372,17.032824 
z"/>
<path fill="#D5FAFC" opacity="1.000000" stroke="none" 
	d="
M56.976944,15.131127 
	C56.770954,15.474118 56.225529,15.775103 55.362427,16.089270 
	C55.575672,15.764675 56.106586,15.426898 56.976944,15.131127 
z"/>
<path fill="#D5FAFC" opacity="1.000000" stroke="none" 
	d="
M44.010593,23.012192 
	C43.837265,23.010822 43.663918,22.996960 43.231915,22.948479 
	C43.069412,22.605978 43.245766,22.354301 43.701057,22.037201 
	C43.899799,21.915571 44.044777,22.049406 44.069927,22.323040 
	C44.095078,22.596674 44.028652,23.012638 44.028652,23.012638 
	C44.028652,23.012638 44.010574,22.999697 44.010593,23.012192 
z"/>
<path fill="#D5FAFC" opacity="1.000000" stroke="none" 
	d="
M54.863094,16.108324 
	C55.008553,16.409439 54.801121,16.633764 54.227188,16.751915 
	C54.130329,16.480169 54.346836,16.275434 54.863094,16.108324 
z"/>
<path fill="#5ABECC" opacity="1.000000" stroke="none" 
	d="
M62.692291,14.120825 
	C62.687180,14.328218 62.397030,14.569272 61.812069,14.835379 
	C61.813919,14.625115 62.110584,14.389800 62.692291,14.120825 
z"/>
<path fill="#5ABECC" opacity="1.000000" stroke="none" 
	d="
M36.233551,29.925686 
	C35.894520,29.923544 35.894402,29.447762 35.933464,29.213076 
	C36.705284,28.571634 37.438038,28.164881 38.482380,27.768688 
	C38.053505,28.495443 37.313046,29.211636 36.233551,29.925686 
z"/>
<path fill="#5ABECC" opacity="1.000000" stroke="none" 
	d="
M61.914635,19.663456 
	C61.165672,19.941303 60.471447,20.032015 59.428787,20.163826 
	C59.935482,19.653807 60.790604,19.102690 61.850502,18.823761 
	C62.055283,19.095949 61.969368,19.476318 61.914635,19.663456 
z"/>
<path fill="#5ABECC" opacity="1.000000" stroke="none" 
	d="
M24.092283,44.488403 
	C24.147467,44.143272 24.555250,44.040699 24.760441,43.995502 
	C24.789555,44.829548 24.613476,45.708790 24.131798,46.749916 
	C23.896500,46.219048 23.966801,45.526291 24.092283,44.488403 
z"/>
<path fill="#5EBECD" opacity="1.000000" stroke="none" 
	d="
M23.952808,59.590069 
	C23.952425,59.957058 23.534292,60.064747 23.321688,60.098164 
	C23.237320,59.230198 23.365557,58.328819 23.776100,57.225372 
	C24.023333,57.756569 23.988262,58.489822 23.952808,59.590069 
z"/>
<path fill="#5ABECC" opacity="1.000000" stroke="none" 
	d="
M34.236889,31.902319 
	C34.394978,31.323650 34.890018,30.734222 35.657509,30.031496 
	C35.477921,30.575985 35.025879,31.233772 34.236889,31.902319 
z"/>
<path fill="#5ABECC" opacity="1.000000" stroke="none" 
	d="
M44.339111,22.983837 
	C44.028652,23.012638 44.095078,22.596674 44.140778,22.391689 
	C44.574730,22.090929 44.962975,21.995152 45.645607,21.837782 
	C45.509853,22.169136 45.079712,22.562084 44.339111,22.983837 
z"/>
<path fill="#3492DA" opacity="1.000000" stroke="none" 
	d="
M73.998474,28.371567 
	C74.323196,27.896976 74.581703,27.709383 74.897903,27.229580 
	C79.740257,26.020498 84.016716,25.619730 86.534073,31.317848 
	C87.117226,32.637840 90.186150,32.877579 92.125061,33.576065 
	C94.452507,34.414524 96.794746,35.211956 99.506165,36.072670 
	C99.937935,41.452232 96.366837,36.795963 94.528625,37.875900 
	C92.126595,34.494473 89.380928,34.021992 86.357140,36.242809 
	C79.860420,41.014317 79.922897,41.054092 73.413147,36.030643 
	C72.690590,35.473061 71.636917,35.344578 70.367905,35.010994 
	C69.997658,34.553890 69.996315,34.102882 69.989578,33.313229 
	C71.319305,31.562210 72.654427,30.149841 73.998474,28.371567 
z"/>
<path fill="#F7FEF4" opacity="1.000000" stroke="none" 
	d="
M98.930046,94.787369 
	C97.262741,94.141296 95.962090,93.534454 94.626152,93.019096 
	C93.522369,92.593300 92.376862,92.275665 90.740288,91.744812 
	C94.385132,89.612656 99.488426,90.955574 100.528419,93.802673 
	C100.593742,93.981483 99.718887,94.503731 98.930046,94.787369 
z"/>
<path fill="#7E48AD" opacity="1.000000" stroke="none" 
	d="
M97.367889,113.752327 
	C97.290047,113.913925 97.040016,113.932007 96.415421,113.981308 
	C96.425812,113.877953 96.810760,113.743385 97.367889,113.752327 
z"/>
</svg>