<svg version="1.1" id="Layer_1" xmlns="http://www.w3.org/2000/svg" xmlns:xlink="http://www.w3.org/1999/xlink" x="0px" y="0px"
	 width="100%" viewBox="0 0 576 324" enable-background="new 0 0 576 324" xml:space="preserve">
<path fill="#000000" opacity="1.000000" stroke="none" 
	d="
M429.000000,325.000000 
	C286.039551,325.000000 143.579117,325.000000 1.059332,325.000000 
	C1.059332,217.069565 1.059332,109.139084 1.059332,1.104300 
	C192.877121,1.104300 384.754333,1.104300 576.815796,1.104300 
	C576.815796,108.999741 576.815796,216.999847 576.815796,325.000000 
	C527.805725,325.000000 478.652863,325.000000 429.000000,325.000000 
M352.016418,248.304550 
	C351.955261,247.869568 351.894104,247.434586 351.966431,246.192596 
	C352.034149,245.371674 351.982788,243.865463 352.186981,243.829971 
	C357.385834,242.926483 356.672974,237.862213 358.716370,234.769012 
	C360.499756,232.069489 359.566711,230.294098 357.003113,228.257919 
	C356.946503,227.838455 356.889893,227.419006 356.969086,226.365738 
	C357.006073,225.935318 357.043091,225.504913 357.933441,225.013123 
	C358.952820,224.161957 360.732147,223.395828 360.838806,222.442535 
	C361.087677,220.218338 360.531097,217.904297 360.303284,215.626389 
	C360.056702,213.161224 359.032379,210.970078 362.707642,209.371979 
	C368.642212,206.791473 374.060852,203.044998 379.841766,200.071625 
	C380.879913,199.537674 383.181213,199.825439 383.939148,200.633926 
	C391.423889,208.617722 407.822144,209.104477 416.652527,203.725876 
	C426.111389,197.964478 431.159790,189.505524 429.965729,177.188736 
	C429.588318,175.125916 429.210938,173.063095 428.962158,170.253036 
	C427.139557,165.337570 425.193024,160.511322 419.780273,157.306046 
	C410.908630,149.582336 400.685730,150.526672 390.820709,153.952057 
	C386.663666,155.395493 383.542603,159.822586 379.291870,163.234726 
	C378.488098,166.143860 377.684326,169.052979 376.344696,172.230148 
	C376.190887,174.139740 376.037079,176.049347 375.266693,178.344360 
	C375.148376,180.166489 375.150574,182.007553 374.868134,183.803879 
	C374.689423,184.940491 374.411163,186.549057 373.622101,187.024948 
	C367.315887,190.828369 360.876923,194.411758 354.285370,198.172791 
	C348.604645,187.456039 338.752167,182.912476 328.785034,180.465347 
	C320.376526,178.400909 311.218536,179.425400 302.709045,183.524460 
	C294.002930,187.718246 287.488190,193.787872 283.349792,202.328705 
	C278.694214,211.936890 277.486542,221.737488 280.796967,232.348495 
	C284.808044,245.205246 292.472900,254.076614 305.761475,258.993958 
	C310.507507,259.940277 315.253571,260.886597 320.848480,261.965057 
	C323.911591,261.350067 326.974670,260.735107 330.691711,260.018036 
	C331.127533,259.956482 331.563385,259.894928 332.710480,259.715790 
	C334.806305,258.755005 336.902130,257.794220 339.626221,256.951813 
	C340.402679,256.671936 341.179108,256.392059 342.245483,256.722839 
	C344.684601,259.039948 347.068756,261.498505 351.006348,260.741608 
	C352.989990,263.532593 354.973663,266.323578 357.056793,269.911499 
	C357.704529,271.764130 358.730011,273.578064 358.924774,275.477142 
	C359.392517,280.038330 358.278168,285.165894 360.010712,289.089783 
	C362.126373,293.881317 366.190430,297.983093 369.989197,301.810120 
	C373.378967,305.225098 377.917328,303.146973 382.810852,302.971344 
	C388.946625,304.593536 394.521820,303.885498 399.725250,298.752319 
	C410.170898,289.433105 411.414062,272.534180 399.747589,262.270477 
	C396.737091,260.572357 393.726562,258.874237 390.104492,256.671478 
	C387.069489,256.503235 384.034485,256.334991 380.219147,256.034851 
	C378.129578,256.654572 376.040039,257.274261 373.253357,257.980896 
	C371.822632,258.947662 370.391907,259.914459 368.306793,260.982422 
	C367.870697,261.043884 367.434601,261.105347 366.368408,260.838318 
	C362.912262,257.614410 359.456085,254.390503 355.337128,251.040665 
	C354.891296,251.082611 354.445465,251.124542 353.451843,250.880356 
	C353.006134,250.239471 352.560425,249.598587 352.016418,248.304550 
M201.237152,228.969604 
	C209.607925,228.293243 217.669037,228.430283 222.547882,237.017624 
	C222.703018,237.290726 223.010056,237.502380 223.287430,237.677567 
	C230.409134,242.175110 237.404419,246.892792 244.696228,251.095917 
	C253.624969,256.242645 263.421814,258.836182 275.345062,260.052887 
	C269.120697,253.685318 268.403137,244.482971 259.103668,242.520905 
	C257.405487,242.162598 255.647263,241.569351 254.196167,240.645599 
	C246.139282,235.516708 238.257065,230.109085 230.131851,225.093704 
	C225.957169,222.516815 225.567017,219.785843 227.127548,215.224884 
	C231.255692,203.159393 223.627762,189.643829 210.539154,189.110886 
	C207.561584,188.989639 206.373795,187.722992 205.783005,185.340088 
	C204.454681,179.982422 202.458359,174.638916 202.144943,169.208221 
	C201.006363,149.480392 205.771973,131.181458 216.757553,114.584465 
	C227.773346,97.941826 242.883224,86.727287 261.606079,80.149017 
	C266.585541,78.399475 269.986115,77.935371 274.333038,83.289284 
	C283.881714,95.049965 300.535400,92.032127 308.715759,78.111633 
	C344.318024,88.400993 365.493927,112.155373 373.793671,148.688583 
	C376.838562,146.619537 379.263733,144.242538 382.168457,143.193604 
	C385.360382,142.040985 385.118256,140.507401 384.504303,137.950470 
	C382.350769,128.981857 379.037537,120.655403 374.487305,112.492203 
	C367.528778,100.008408 358.129303,90.014603 346.948700,81.634644 
	C337.562531,74.599632 327.199707,69.293945 315.545929,66.578087 
	C312.507263,65.869942 309.099304,65.095917 307.309448,60.424271 
	C305.069824,54.578606 299.981232,50.334980 292.573669,49.888058 
	C283.475677,49.339146 275.963379,51.426617 271.596008,60.000427 
	C270.140259,62.858215 268.150513,64.091080 265.239960,65.130257 
	C256.713226,68.174591 248.026321,71.047920 240.001984,75.158997 
	C226.916245,81.863174 216.176163,91.605965 207.703995,103.707977 
	C200.899826,113.427345 195.427750,123.845032 192.372452,135.345551 
	C190.870544,140.998871 189.550049,146.805313 189.112411,152.615143 
	C188.129471,165.664566 189.322144,178.566498 193.458496,191.105377 
	C193.735840,191.946152 193.096603,193.288208 192.533981,194.175354 
	C188.374557,200.734039 185.169754,207.324722 188.134537,215.484772 
	C190.416153,221.764557 195.129730,225.467911 201.237152,228.969604 
M150.064499,191.170532 
	C151.077423,194.918533 151.924957,198.721222 153.142120,202.401688 
	C154.956100,207.886719 157.156464,213.244308 158.957306,218.733261 
	C160.570145,223.649200 163.198730,225.214371 168.564163,223.971512 
	C171.412491,223.311737 173.014648,219.238663 171.618088,215.218796 
	C167.252533,202.653000 161.767365,190.360153 161.900803,176.694427 
	C162.021072,164.379181 161.014984,151.833588 163.048599,139.820053 
	C164.958862,128.535156 169.949387,117.720657 174.032166,106.867538 
	C179.088654,93.426048 188.089569,82.252396 197.904510,72.328743 
	C207.762848,62.361187 219.265244,54.015045 232.240891,47.781044 
	C245.988892,41.175980 260.176056,36.691086 275.263824,35.073204 
	C279.674377,34.600262 280.854095,31.702669 280.860779,28.387089 
	C280.867706,24.969765 279.393982,21.647573 275.039062,22.060183 
	C269.029419,22.629574 262.858948,22.920816 257.118042,24.579561 
	C248.196609,27.157284 239.571960,30.767311 230.834000,33.973812 
	C215.667267,39.539433 202.931763,48.958561 191.622849,60.129089 
	C184.600525,67.065498 178.013947,74.724045 172.640625,82.975868 
	C166.301208,92.711349 160.524734,103.059883 156.278214,113.841362 
	C152.152618,124.315796 149.633698,135.427505 148.728729,146.954361 
	C147.584747,161.525604 147.802811,175.906143 150.064499,191.170532 
M315.509796,120.983727 
	C305.153290,105.396248 290.117950,100.914352 271.062927,105.342461 
	C256.847473,108.645935 244.307495,121.008629 243.702286,140.532394 
	C229.956985,145.482239 223.399033,159.643311 225.273544,171.820190 
	C227.958649,189.262634 239.921890,200.871292 265.216675,197.783264 
	C267.280945,193.717010 269.292633,189.754272 271.706268,184.999771 
	C265.303680,184.999771 259.862183,185.076599 254.423660,184.981369 
	C246.734497,184.846710 238.115036,176.140198 238.032852,168.548874 
	C237.962601,162.060425 243.650223,154.740433 250.341202,152.925552 
	C254.417419,151.819901 256.478638,150.037201 256.171387,145.106766 
	C255.656723,136.847916 259.122711,129.869766 265.030762,123.931206 
	C272.132629,116.792656 280.952972,115.079597 289.803497,117.660774 
	C300.240540,120.704636 306.971375,128.415970 308.979340,139.502197 
	C309.566559,142.744308 311.461823,143.473206 314.264404,142.900040 
	C324.395660,140.828033 335.086548,146.557907 337.829102,156.529236 
	C339.449127,162.419403 342.220154,166.381454 347.922241,168.427780 
	C350.825592,169.469711 353.019531,169.360672 352.938446,165.639893 
	C352.870941,162.543228 352.489624,159.424622 351.935333,156.372391 
	C349.744141,144.306442 342.367676,135.713760 331.431946,131.615738 
	C325.178772,129.272446 318.613495,128.905716 315.509796,120.983727 
M196.456650,251.110443 
	C193.103546,247.361252 189.443161,243.837311 186.483353,239.799820 
	C183.493942,235.722000 179.554749,235.411667 175.978165,237.122940 
	C173.639526,238.241898 172.736954,244.963272 175.059860,247.390015 
	C184.356247,257.101837 193.523666,267.005219 203.542160,275.936554 
	C211.845093,283.338531 221.460403,289.133698 232.197189,292.735840 
	C241.174606,295.747711 249.896667,300.269684 259.104401,301.666046 
	C272.075623,303.633148 285.404846,304.027130 298.554413,303.764130 
	C307.905548,303.577118 317.274200,301.508026 326.516846,299.680878 
	C332.122650,298.572723 337.503296,296.325348 342.805328,294.646667 
	C341.954498,290.368530 341.168762,286.417755 340.259949,281.848114 
	C338.827179,282.166595 337.122772,282.384491 335.531494,282.931580 
	C331.858978,284.194244 328.318848,285.898590 324.587585,286.923401 
	C311.328461,290.564941 297.793579,291.353607 284.068573,291.111542 
	C271.517365,290.890228 259.626587,288.565216 247.710022,284.542236 
	C232.304138,279.341248 218.660645,271.525146 206.413910,261.064728 
	C203.043182,258.185669 200.070297,254.840866 196.456650,251.110443 
M404.064758,107.256027 
	C407.359131,115.495117 412.773682,123.571495 413.421570,132.013687 
	C414.268250,143.045776 423.810547,141.723587 428.553314,146.944214 
	C428.692810,134.389923 425.149536,122.888710 421.051178,111.657585 
	C417.119720,100.883698 411.633881,90.836670 404.917938,81.382118 
	C396.049805,68.897781 385.856812,57.742653 373.337860,49.068691 
	C363.851868,42.496170 353.849701,36.457523 343.456512,31.476353 
	C335.966278,27.886469 327.537811,26.077280 319.369873,24.139805 
	C313.843201,22.828859 308.056488,22.379452 302.359009,22.104023 
	C298.384583,21.911892 297.122620,25.283443 297.116821,28.487587 
	C297.111023,31.693348 298.443359,34.222099 302.323669,35.077061 
	C313.052338,37.440937 323.967163,39.399265 334.316406,42.951363 
	C353.956268,49.692188 370.376007,61.634907 384.222748,77.070808 
	C392.182709,85.944267 399.020416,95.598625 404.064758,107.256027 
z"/>
<path fill="#0091DA" opacity="1.000000" stroke="none" 
	d="
M200.821167,228.892853 
	C195.129730,225.467911 190.416153,221.764557 188.134537,215.484772 
	C185.169754,207.324722 188.374557,200.734039 192.533981,194.175354 
	C193.096603,193.288208 193.735840,191.946152 193.458496,191.105377 
	C189.322144,178.566498 188.129471,165.664566 189.112411,152.615143 
	C189.550049,146.805313 190.870544,140.998871 192.372452,135.345551 
	C195.427750,123.845032 200.899826,113.427345 207.703995,103.707977 
	C216.176163,91.605965 226.916245,81.863174 240.001984,75.158997 
	C248.026321,71.047920 256.713226,68.174591 265.239960,65.130257 
	C268.150513,64.091080 270.140259,62.858215 271.596008,60.000427 
	C275.963379,51.426617 283.475677,49.339146 292.573669,49.888058 
	C299.981232,50.334980 305.069824,54.578606 307.309448,60.424271 
	C309.099304,65.095917 312.507263,65.869942 315.545929,66.578087 
	C327.199707,69.293945 337.562531,74.599632 346.948700,81.634644 
	C358.129303,90.014603 367.528778,100.008408 374.487305,112.492203 
	C379.037537,120.655403 382.350769,128.981857 384.504303,137.950470 
	C385.118256,140.507401 385.360382,142.040985 382.168457,143.193604 
	C379.263733,144.242538 376.838562,146.619537 373.793671,148.688583 
	C365.493927,112.155373 344.318024,88.400993 308.715759,78.111633 
	C300.535400,92.032127 283.881714,95.049965 274.333038,83.289284 
	C269.986115,77.935371 266.585541,78.399475 261.606079,80.149017 
	C242.883224,86.727287 227.773346,97.941826 216.757553,114.584465 
	C205.771973,131.181458 201.006363,149.480392 202.144943,169.208221 
	C202.458359,174.638916 204.454681,179.982422 205.783005,185.340088 
	C206.373795,187.722992 207.561584,188.989639 210.539154,189.110886 
	C223.627762,189.643829 231.255692,203.159393 227.127548,215.224884 
	C225.567017,219.785843 225.957169,222.516815 230.131851,225.093704 
	C238.257065,230.109085 246.139282,235.516708 254.196167,240.645599 
	C255.647263,241.569351 257.405487,242.162598 259.103668,242.520905 
	C268.403137,244.482971 269.120697,253.685318 275.345062,260.052887 
	C263.421814,258.836182 253.624969,256.242645 244.696228,251.095917 
	C237.404419,246.892792 230.409134,242.175110 223.287430,237.677567 
	C223.010056,237.502380 222.703018,237.290726 222.547882,237.017624 
	C217.669037,228.430283 209.607925,228.293243 200.821167,228.892853 
M291.161713,63.008625 
	C290.007782,63.011082 288.477234,62.541645 287.771057,63.105186 
	C285.718750,64.743004 283.408783,66.523888 282.366516,68.786133 
	C281.745178,70.134766 282.803009,72.946350 284.002991,74.312309 
	C287.277802,78.040146 292.205902,77.878784 295.066864,74.409363 
	C298.312653,70.473282 297.284760,66.694244 291.161713,63.008625 
M202.087189,213.405533 
	C203.290863,214.221985 204.390289,215.420670 205.717880,215.782761 
	C209.606384,216.843307 212.225922,215.227234 214.155991,211.653030 
	C216.177322,207.909790 214.755478,204.578766 211.909103,203.306015 
	C209.435165,202.199814 205.219559,202.501816 202.990799,203.996460 
	C200.496048,205.669510 197.945816,209.242844 202.087189,213.405533 
z"/>
<path fill="#00C1D5" opacity="1.000000" stroke="none" 
	d="
M150.035828,190.737976 
	C147.802811,175.906143 147.584747,161.525604 148.728729,146.954361 
	C149.633698,135.427505 152.152618,124.315796 156.278214,113.841362 
	C160.524734,103.059883 166.301208,92.711349 172.640625,82.975868 
	C178.013947,74.724045 184.600525,67.065498 191.622849,60.129089 
	C202.931763,48.958561 215.667267,39.539433 230.834000,33.973812 
	C239.571960,30.767311 248.196609,27.157284 257.118042,24.579561 
	C262.858948,22.920816 269.029419,22.629574 275.039062,22.060183 
	C279.393982,21.647573 280.867706,24.969765 280.860779,28.387089 
	C280.854095,31.702669 279.674377,34.600262 275.263824,35.073204 
	C260.176056,36.691086 245.988892,41.175980 232.240891,47.781044 
	C219.265244,54.015045 207.762848,62.361187 197.904510,72.328743 
	C188.089569,82.252396 179.088654,93.426048 174.032166,106.867538 
	C169.949387,117.720657 164.958862,128.535156 163.048599,139.820053 
	C161.014984,151.833588 162.021072,164.379181 161.900803,176.694427 
	C161.767365,190.360153 167.252533,202.653000 171.618088,215.218796 
	C173.014648,219.238663 171.412491,223.311737 168.564163,223.971512 
	C163.198730,225.214371 160.570145,223.649200 158.957306,218.733261 
	C157.156464,213.244308 154.956100,207.886719 153.142120,202.401688 
	C151.924957,198.721222 151.077423,194.918533 150.035828,190.737976 
z"/>
<path fill="#7F35B2" opacity="1.000000" stroke="none" 
	d="
M429.833649,178.001419 
	C431.159790,189.505524 426.111389,197.964478 416.652527,203.725876 
	C407.822144,209.104477 391.423889,208.617722 383.939148,200.633926 
	C383.181213,199.825439 380.879913,199.537674 379.841766,200.071625 
	C374.060852,203.044998 368.642212,206.791473 362.707642,209.371979 
	C359.032379,210.970078 360.056702,213.161224 360.303284,215.626389 
	C360.531097,217.904297 361.087677,220.218338 360.838806,222.442535 
	C360.732147,223.395828 358.952820,224.161957 357.455139,224.997498 
	C356.976837,224.981857 356.872925,224.889954 356.828033,224.606552 
	C355.855438,224.215439 354.927704,224.107712 353.616638,224.000000 
	C352.211029,224.000000 351.188751,223.999985 350.097626,223.608612 
	C349.353302,221.259598 348.446655,219.348526 348.041046,217.336456 
	C345.906586,206.748535 339.712006,199.345657 330.050201,195.012482 
	C319.637451,190.342484 309.996918,192.862350 301.907806,200.186615 
	C296.292267,205.271225 292.032471,211.774216 292.071716,219.787750 
	C292.146759,235.119186 303.760712,247.749405 320.914062,249.513855 
	C319.691864,254.152679 316.808411,254.112106 313.160736,253.375168 
	C306.887360,252.107773 304.409821,253.938919 304.998810,258.833313 
	C292.472900,254.076614 284.808044,245.205246 280.796967,232.348495 
	C277.486542,221.737488 278.694214,211.936890 283.349792,202.328705 
	C287.488190,193.787872 294.002930,187.718246 302.709045,183.524460 
	C311.218536,179.425400 320.376526,178.400909 328.785034,180.465347 
	C338.752167,182.912476 348.604645,187.456039 354.285370,198.172791 
	C360.876923,194.411758 367.315887,190.828369 373.622101,187.024948 
	C374.411163,186.549057 374.689423,184.940491 374.868134,183.803879 
	C375.150574,182.007553 375.148376,180.166489 375.996826,178.162247 
	C380.191162,177.999298 383.655426,178.018478 387.089203,178.426422 
	C387.373627,179.903732 387.760803,180.977158 387.992279,182.083176 
	C390.448883,193.821198 402.481232,196.747757 410.462860,191.827209 
	C415.643402,188.633453 416.617401,183.281784 418.251221,178.103714 
	C422.391846,180.131363 426.132751,180.379257 429.833649,178.001419 
z"/>
<path fill="#0091DA" opacity="1.000000" stroke="none" 
	d="
M315.764954,121.253540 
	C318.613495,128.905716 325.178772,129.272446 331.431946,131.615738 
	C342.367676,135.713760 349.744141,144.306442 351.935333,156.372391 
	C352.489624,159.424622 352.870941,162.543228 352.938446,165.639893 
	C353.019531,169.360672 350.825592,169.469711 347.922241,168.427780 
	C342.220154,166.381454 339.449127,162.419403 337.829102,156.529236 
	C335.086548,146.557907 324.395660,140.828033 314.264404,142.900040 
	C311.461823,143.473206 309.566559,142.744308 308.979340,139.502197 
	C306.971375,128.415970 300.240540,120.704636 289.803497,117.660774 
	C280.952972,115.079597 272.132629,116.792656 265.030762,123.931206 
	C259.122711,129.869766 255.656723,136.847916 256.171387,145.106766 
	C256.478638,150.037201 254.417419,151.819901 250.341202,152.925552 
	C243.650223,154.740433 237.962601,162.060425 238.032852,168.548874 
	C238.115036,176.140198 246.734497,184.846710 254.423660,184.981369 
	C259.862183,185.076599 265.303680,184.999771 271.706268,184.999771 
	C269.292633,189.754272 267.280945,193.717010 265.216675,197.783264 
	C239.921890,200.871292 227.958649,189.262634 225.273544,171.820190 
	C223.399033,159.643311 229.956985,145.482239 243.702286,140.532394 
	C244.307495,121.008629 256.847473,108.645935 271.062927,105.342461 
	C290.117950,100.914352 305.153290,105.396248 315.764954,121.253540 
z"/>
<path fill="#00C1D5" opacity="1.000000" stroke="none" 
	d="
M196.685760,251.410095 
	C200.070297,254.840866 203.043182,258.185669 206.413910,261.064728 
	C218.660645,271.525146 232.304138,279.341248 247.710022,284.542236 
	C259.626587,288.565216 271.517365,290.890228 284.068573,291.111542 
	C297.793579,291.353607 311.328461,290.564941 324.587585,286.923401 
	C328.318848,285.898590 331.858978,284.194244 335.531494,282.931580 
	C337.122772,282.384491 338.827179,282.166595 340.259949,281.848114 
	C341.168762,286.417755 341.954498,290.368530 342.805328,294.646667 
	C337.503296,296.325348 332.122650,298.572723 326.516846,299.680878 
	C317.274200,301.508026 307.905548,303.577118 298.554413,303.764130 
	C285.404846,304.027130 272.075623,303.633148 259.104401,301.666046 
	C249.896667,300.269684 241.174606,295.747711 232.197189,292.735840 
	C221.460403,289.133698 211.845093,283.338531 203.542160,275.936554 
	C193.523666,267.005219 184.356247,257.101837 175.059860,247.390015 
	C172.736954,244.963272 173.639526,238.241898 175.978165,237.122940 
	C179.554749,235.411667 183.493942,235.722000 186.483353,239.799820 
	C189.443161,243.837311 193.103546,247.361252 196.685760,251.410095 
z"/>
<path fill="#00C1D5" opacity="1.000000" stroke="none" 
	d="
M404.032318,106.872414 
	C399.020416,95.598625 392.182709,85.944267 384.222748,77.070808 
	C370.376007,61.634907 353.956268,49.692188 334.316406,42.951363 
	C323.967163,39.399265 313.052338,37.440937 302.323669,35.077061 
	C298.443359,34.222099 297.111023,31.693348 297.116821,28.487587 
	C297.122620,25.283443 298.384583,21.911892 302.359009,22.104023 
	C308.056488,22.379452 313.843201,22.828859 319.369873,24.139805 
	C327.537811,26.077280 335.966278,27.886469 343.456512,31.476353 
	C353.849701,36.457523 363.851868,42.496170 373.337860,49.068691 
	C385.856812,57.742653 396.049805,68.897781 404.917938,81.382118 
	C411.633881,90.836670 417.119720,100.883698 421.051178,111.657585 
	C425.149536,122.888710 428.692810,134.389923 428.553314,146.944214 
	C423.810547,141.723587 414.268250,143.045776 413.421570,132.013687 
	C412.773682,123.571495 407.359131,115.495117 404.032318,106.872414 
z"/>
<path fill="#7F35B2" opacity="1.000000" stroke="none" 
	d="
M429.899689,177.595078 
	C426.132751,180.379257 422.391846,180.131363 417.944580,177.904327 
	C416.367096,172.528748 413.946899,168.195801 408.944977,166.582092 
	C405.209320,165.376907 401.028870,165.550507 396.751770,164.897522 
	C394.304718,164.789978 392.152374,164.894989 389.567078,165.000000 
	C386.072998,164.297791 383.011810,163.595596 379.950623,162.893402 
	C383.542603,159.822586 386.663666,155.395493 390.820709,153.952057 
	C400.685730,150.526672 410.908630,149.582336 419.778961,157.880676 
	C420.532715,160.554794 420.850037,162.992203 422.147522,164.673004 
	C423.999786,167.072647 426.569977,168.918121 428.833557,171.000275 
	C429.210938,173.063095 429.588318,175.125916 429.899689,177.595078 
M401.133148,160.798599 
	C403.266541,159.736908 405.399902,158.675217 407.931061,157.415558 
	C406.652618,152.195587 402.867218,155.092087 400.263824,155.414261 
	C399.208008,155.544922 398.354553,157.310776 397.409027,158.332581 
	C398.414124,159.176712 399.419220,160.020828 401.133148,160.798599 
z"/>
<path fill="#7F35B2" opacity="1.000000" stroke="none" 
	d="
M381.999603,302.833527 
	C377.917328,303.146973 373.378967,305.225098 369.989197,301.810120 
	C366.190430,297.983093 362.126373,293.881317 360.010712,289.089783 
	C358.278168,285.165894 359.392517,280.038330 358.924774,275.477142 
	C358.730011,273.578064 357.704529,271.764130 357.159973,269.188538 
	C360.508240,266.032623 363.753357,263.599701 366.998505,261.166809 
	C367.434601,261.105347 367.870697,261.043884 368.643921,261.211517 
	C368.987335,261.627075 368.993683,261.813538 368.959595,262.356415 
	C369.068115,264.806976 365.010803,266.955200 369.001953,269.389893 
	C370.017151,271.890900 371.030426,274.002014 372.026398,276.550903 
	C370.593781,284.132568 374.040405,288.691986 379.922058,292.011383 
	C380.724823,292.464417 381.339233,293.251221 382.032776,294.295105 
	C382.016479,295.804474 382.008240,296.902222 382.000000,298.402893 
	C381.999847,300.148376 381.999725,301.490967 381.999603,302.833527 
z"/>
<path fill="#7F35B2" opacity="1.000000" stroke="none" 
	d="
M400.044373,262.888763 
	C411.414062,272.534180 410.170898,289.433105 399.062775,298.752197 
	C393.933533,298.168030 389.466766,297.584015 385.186920,296.714050 
	C386.334717,293.849792 392.089996,294.630493 390.107666,289.574646 
	C396.754944,280.724518 396.199219,275.744568 388.476074,270.241699 
	C391.368988,266.864441 392.617706,261.465790 398.690979,264.208282 
	C398.900696,264.303009 399.582581,263.352234 400.044373,262.888763 
z"/>
<path fill="#7F35B2" opacity="1.000000" stroke="none" 
	d="
M305.380127,258.913635 
	C304.409821,253.938919 306.887360,252.107773 313.160736,253.375168 
	C316.808411,254.112106 319.691864,254.152679 321.317200,249.447662 
	C327.354004,246.686462 332.968658,244.480133 338.410706,241.908463 
	C340.138947,241.091751 341.407288,239.301895 343.238007,238.036407 
	C347.271301,239.962494 349.902405,242.567322 350.066833,247.276306 
	C350.422485,248.035065 350.711243,248.517532 351.000000,249.399811 
	C351.000000,250.866425 351.000000,251.933212 350.816589,253.149384 
	C350.398315,253.511002 350.187256,253.744751 349.664124,254.082260 
	C346.870697,254.813736 344.413147,255.462936 341.955566,256.112152 
	C341.179108,256.392059 340.402679,256.671936 339.207886,256.568939 
	C337.433868,255.609100 335.170685,254.251419 334.879364,254.590057 
	C333.606964,256.069122 332.906982,258.040619 331.999207,259.833374 
	C331.563385,259.894928 331.127533,259.956482 330.282898,259.733490 
	C328.574158,258.568695 326.828705,256.664307 326.057709,256.999756 
	C323.725952,258.014252 319.568054,257.276764 319.999603,261.832916 
	C315.253571,260.886597 310.507507,259.940277 305.380127,258.913635 
z"/>
<path fill="#7F35B2" opacity="1.000000" stroke="none" 
	d="
M399.895996,262.579620 
	C399.582581,263.352234 398.900696,264.303009 398.690979,264.208282 
	C392.617706,261.465790 391.368988,266.864441 388.160126,270.048218 
	C384.819977,269.815369 381.660248,268.528687 379.509674,269.492889 
	C376.613770,270.791290 374.495636,273.824463 372.043701,276.113098 
	C371.030426,274.002014 370.017151,271.890900 369.284241,269.323792 
	C370.160278,268.326233 370.755951,267.784729 371.351654,267.243225 
	C371.085388,267.022919 370.819153,266.802582 370.552887,266.582245 
	C370.035248,267.388153 369.517639,268.194092 369.000000,269.000000 
	C365.010803,266.955200 369.068115,264.806976 369.362793,262.358704 
	C372.015442,263.110443 374.438995,263.933289 376.374329,265.400269 
	C378.382416,266.922394 379.694397,267.529144 380.937622,264.790649 
	C381.367523,263.843689 382.048706,263.010773 383.499542,260.743835 
	C384.497589,262.808380 385.119965,264.095886 385.327789,264.525787 
	C387.238892,261.919067 388.977478,259.547607 390.716064,257.176147 
	C393.726562,258.874237 396.737091,260.572357 399.895996,262.579620 
z"/>
<path fill="#7F35B2" opacity="1.000000" stroke="none" 
	d="
M366.683472,261.002563 
	C363.753357,263.599701 360.508240,266.032623 357.110229,268.790039 
	C354.973663,266.323578 352.989990,263.532593 351.128784,260.112610 
	C351.834137,257.989075 352.417084,256.494537 353.000000,254.750000 
	C353.000000,254.500000 353.000000,254.000000 353.250000,254.000000 
	C353.500000,254.000000 354.000000,254.000000 354.248352,253.831787 
	C354.997772,252.831253 355.498871,251.998932 355.999939,251.166595 
	C359.456085,254.390503 362.912262,257.614410 366.683472,261.002563 
z"/>
<path fill="#7F35B2" opacity="1.000000" stroke="none" 
	d="
M350.000000,247.000000 
	C349.902405,242.567322 347.271301,239.962494 343.285187,237.666046 
	C344.097870,234.911209 345.215302,232.605759 346.510681,230.678162 
	C348.965515,234.858322 351.491272,234.865982 354.305450,231.608292 
	C355.143982,230.637650 356.130219,229.794632 357.048767,228.893158 
	C359.566711,230.294098 360.499756,232.069489 358.716370,234.769012 
	C356.672974,237.862213 357.385834,242.926483 352.186981,243.829971 
	C351.982788,243.865463 352.034149,245.371674 351.594208,246.596222 
	C350.814667,246.999908 350.407318,246.999954 350.000000,247.000000 
z"/>
<path fill="#7F35B2" opacity="1.000000" stroke="none" 
	d="
M390.410278,256.923828 
	C388.977478,259.547607 387.238892,261.919067 385.327789,264.525787 
	C385.119965,264.095886 384.497589,262.808380 383.499542,260.743835 
	C382.048706,263.010773 381.367523,263.843689 380.937622,264.790649 
	C379.694397,267.529144 378.382416,266.922394 376.374329,265.400269 
	C374.438995,263.933289 372.015442,263.110443 369.403198,262.002319 
	C368.993683,261.813538 368.987335,261.627075 368.971130,261.160950 
	C370.391907,259.914459 371.822632,258.947662 373.884460,258.143250 
	C376.676849,257.592682 378.838165,256.879730 380.999481,256.166779 
	C384.034485,256.334991 387.069489,256.503235 390.410278,256.923828 
z"/>
<path fill="#7F35B2" opacity="1.000000" stroke="none" 
	d="
M385.000000,297.000000 
	C389.466766,297.584015 393.933533,298.168030 398.752350,298.901794 
	C394.521820,303.885498 388.946625,304.593536 382.405212,302.902435 
	C381.999725,301.490967 381.999847,300.148376 382.323914,298.380707 
	C383.431854,297.637054 384.215942,297.318542 385.000000,297.000000 
z"/>
<path fill="#7F35B2" opacity="1.000000" stroke="none" 
	d="
M379.621246,163.064056 
	C383.011810,163.595596 386.072998,164.297791 389.458435,165.308426 
	C388.855133,167.077896 387.927582,168.538956 386.591248,170.000427 
	C383.454956,170.667221 380.727478,171.333603 377.720154,171.990677 
	C377.253723,171.974945 377.067139,171.968536 376.880554,171.962112 
	C377.684326,169.052979 378.488098,166.143860 379.621246,163.064056 
z"/>
<path fill="#7F35B2" opacity="1.000000" stroke="none" 
	d="
M357.025940,228.575531 
	C356.130219,229.794632 355.143982,230.637650 354.305450,231.608292 
	C351.491272,234.865982 348.965515,234.858322 346.522095,230.609589 
	C346.355530,230.163162 346.493958,230.176331 346.851379,230.273224 
	C348.124908,229.208740 349.041046,228.047348 349.974884,226.523926 
	C350.050537,225.441238 350.108521,224.720612 350.166504,223.999969 
	C351.188751,223.999985 352.211029,224.000000 353.766022,224.183395 
	C354.511017,224.601669 354.744781,224.812729 355.087524,225.273529 
	C355.727814,226.031235 356.280548,226.515381 356.833252,226.999542 
	C356.889893,227.419006 356.946503,227.838455 357.025940,228.575531 
z"/>
<path fill="#7F35B2" opacity="1.000000" stroke="none" 
	d="
M428.897827,170.626648 
	C426.569977,168.918121 423.999786,167.072647 422.147522,164.673004 
	C420.850037,162.992203 420.532715,160.554794 419.940674,158.201416 
	C425.193024,160.511322 427.139557,165.337570 428.897827,170.626648 
z"/>
<path fill="#7F35B2" opacity="1.000000" stroke="none" 
	d="
M353.000000,255.000000 
	C352.417084,256.494537 351.834137,257.989075 351.100464,259.794678 
	C347.068756,261.498505 344.684601,259.039948 342.100525,256.417480 
	C344.413147,255.462936 346.870697,254.813736 349.924072,254.273438 
	C351.346588,254.588242 352.173309,254.794113 353.000000,255.000000 
z"/>
<path fill="#7F35B2" opacity="1.000000" stroke="none" 
	d="
M320.424042,261.898987 
	C319.568054,257.276764 323.725952,258.014252 326.057709,256.999756 
	C326.828705,256.664307 328.574158,258.568695 329.955933,259.784546 
	C326.974670,260.735107 323.911591,261.350067 320.424042,261.898987 
z"/>
<path fill="#7F35B2" opacity="1.000000" stroke="none" 
	d="
M376.612610,172.096130 
	C377.067139,171.968536 377.253723,171.974945 377.705475,172.322861 
	C378.853943,173.901779 379.686218,176.134781 380.630371,176.183151 
	C383.101685,176.309692 385.621826,175.482086 388.072571,175.369934 
	C387.721588,176.482574 387.420624,177.260117 387.119659,178.037659 
	C383.655426,178.018478 380.191162,177.999298 376.305084,177.969543 
	C376.037079,176.049347 376.190887,174.139740 376.612610,172.096130 
z"/>
<path fill="#7F35B2" opacity="1.000000" stroke="none" 
	d="
M332.354858,259.774567 
	C332.906982,258.040619 333.606964,256.069122 334.879364,254.590057 
	C335.170685,254.251419 337.433868,255.609100 338.893738,256.509766 
	C336.902130,257.794220 334.806305,258.755005 332.354858,259.774567 
z"/>
<path fill="#7F35B2" opacity="1.000000" stroke="none" 
	d="
M380.609314,256.100830 
	C378.838165,256.879730 376.676849,257.592682 374.233002,258.099792 
	C376.040039,257.274261 378.129578,256.654572 380.609314,256.100830 
z"/>
<path fill="#7F34B2" opacity="1.000000" stroke="none" 
	d="
M354.000000,254.000000 
	C354.000000,254.000000 353.500000,254.000000 352.999207,253.876572 
	C351.998962,253.502090 351.499481,253.251053 351.000000,253.000000 
	C351.000000,251.933212 351.000000,250.866425 351.278687,249.389435 
	C351.743164,248.972046 351.928955,248.964874 352.114716,248.957703 
	C352.560425,249.598587 353.006134,250.239471 353.725891,251.377594 
	C353.999969,252.583237 353.999969,253.291611 354.000000,254.000000 
z"/>
<path fill="#7F35B2" opacity="1.000000" stroke="none" 
	d="
M354.248352,253.831787 
	C353.999969,253.291611 353.999969,252.583237 353.999817,251.520660 
	C354.445465,251.124542 354.891296,251.082611 355.668518,251.103638 
	C355.498871,251.998932 354.997772,252.831253 354.248352,253.831787 
z"/>
<path fill="#7F34B2" opacity="1.000000" stroke="none" 
	d="
M356.901184,226.682648 
	C356.280548,226.515381 355.727814,226.031235 355.400635,225.262817 
	C356.041748,224.949020 356.457336,224.919479 356.872925,224.889954 
	C356.872925,224.889954 356.976837,224.981857 357.028473,225.028168 
	C357.043091,225.504913 357.006073,225.935318 356.901184,226.682648 
z"/>
<path fill="#7F35B2" opacity="1.000000" stroke="none" 
	d="
M352.065552,248.631134 
	C351.928955,248.964874 351.743164,248.972046 351.278687,248.989609 
	C350.711243,248.517532 350.422485,248.035065 350.066833,247.276306 
	C350.407318,246.999954 350.814667,246.999908 351.527466,246.999725 
	C351.894104,247.434586 351.955261,247.869568 352.065552,248.631134 
z"/>
<path fill="#000000" opacity="1.000000" stroke="none" 
	d="
M291.569458,63.029388 
	C297.284760,66.694244 298.312653,70.473282 295.066864,74.409363 
	C292.205902,77.878784 287.277802,78.040146 284.002991,74.312309 
	C282.803009,72.946350 281.745178,70.134766 282.366516,68.786133 
	C283.408783,66.523888 285.718750,64.743004 287.771057,63.105186 
	C288.477234,62.541645 290.007782,63.011082 291.569458,63.029388 
z"/>
<path fill="#000000" opacity="1.000000" stroke="none" 
	d="
M202.005905,213.021851 
	C197.945816,209.242844 200.496048,205.669510 202.990799,203.996460 
	C205.219559,202.501816 209.435165,202.199814 211.909103,203.306015 
	C214.755478,204.578766 216.177322,207.909790 214.155991,211.653030 
	C212.225922,215.227234 209.606384,216.843307 205.717880,215.782761 
	C204.390289,215.420670 203.290863,214.221985 202.005905,213.021851 
z"/>
<path fill="#000000" opacity="1.000000" stroke="none" 
	d="
M350.097626,223.608612 
	C350.108521,224.720612 350.050537,225.441238 349.694061,226.650024 
	C348.428345,228.150879 347.461151,229.163605 346.493958,230.176331 
	C346.493958,230.176331 346.355530,230.163162 346.344116,230.231735 
	C345.215302,232.605759 344.097870,234.911209 342.933258,237.587006 
	C341.407288,239.301895 340.138947,241.091751 338.410706,241.908463 
	C332.968658,244.480133 327.354004,246.686462 321.403015,249.100403 
	C303.760712,247.749405 292.146759,235.119186 292.071716,219.787750 
	C292.032471,211.774216 296.292267,205.271225 301.907806,200.186615 
	C309.996918,192.862350 319.637451,190.342484 330.050201,195.012482 
	C339.712006,199.345657 345.906586,206.748535 348.041046,217.336456 
	C348.446655,219.348526 349.353302,221.259598 350.097626,223.608612 
z"/>
<path fill="#000000" opacity="1.000000" stroke="none" 
	d="
M387.089203,178.426422 
	C387.420624,177.260117 387.721588,176.482574 388.358917,175.204102 
	C388.813690,173.837036 388.932098,172.970917 389.367188,171.946808 
	C392.138062,169.562592 394.592285,167.336365 397.046478,165.110107 
	C401.028870,165.550507 405.209320,165.376907 408.944977,166.582092 
	C413.946899,168.195801 416.367096,172.528748 417.570923,177.835876 
	C416.617401,183.281784 415.643402,188.633453 410.462860,191.827209 
	C402.481232,196.747757 390.448883,193.821198 387.992279,182.083176 
	C387.760803,180.977158 387.373627,179.903732 387.089203,178.426422 
z"/>
<path fill="#7F34B2" opacity="1.000000" stroke="none" 
	d="
M356.828033,224.606552 
	C356.457336,224.919479 356.041748,224.949020 355.313080,224.989273 
	C354.744781,224.812729 354.511017,224.601669 354.149384,224.183380 
	C354.927704,224.107712 355.855438,224.215439 356.828033,224.606552 
z"/>
<path fill="#7F35B2" opacity="1.000000" stroke="none" 
	d="
M400.778748,160.831772 
	C399.419220,160.020828 398.414124,159.176712 397.409027,158.332581 
	C398.354553,157.310776 399.208008,155.544922 400.263824,155.414261 
	C402.867218,155.092087 406.652618,152.195587 407.931061,157.415558 
	C405.399902,158.675217 403.266541,159.736908 400.778748,160.831772 
z"/>
<path fill="#7F35B2" opacity="1.000000" stroke="none" 
	d="
M396.751770,164.897537 
	C394.592285,167.336365 392.138062,169.562592 389.210541,171.693329 
	C388.158142,171.065231 387.579071,170.532608 387.000000,170.000000 
	C387.927582,168.538956 388.855133,167.077896 389.891357,165.308441 
	C392.152374,164.894989 394.304718,164.789978 396.751770,164.897537 
z"/>
<path fill="#000000" opacity="1.000000" stroke="none" 
	d="
M372.026398,276.550903 
	C374.495636,273.824463 376.613770,270.791290 379.509674,269.492889 
	C381.660248,268.528687 384.819977,269.815369 387.846161,270.292908 
	C396.199219,275.744568 396.754944,280.724518 389.744232,289.632324 
	C386.834259,291.294830 384.437561,292.589142 382.040863,293.883484 
	C381.339233,293.251221 380.724823,292.464417 379.922058,292.011383 
	C374.040405,288.691986 370.593781,284.132568 372.026398,276.550903 
z"/>
<path fill="#7F35B2" opacity="1.000000" stroke="none" 
	d="
M382.032776,294.295105 
	C384.437561,292.589142 386.834259,291.294830 389.594360,289.942841 
	C392.089996,294.630493 386.334717,293.849792 385.186920,296.714050 
	C384.215942,297.318542 383.431854,297.637054 382.323914,297.977783 
	C382.008240,296.902222 382.016479,295.804474 382.032776,294.295105 
z"/>
<path fill="#7F35B2" opacity="1.000000" stroke="none" 
	d="
M350.816589,253.149384 
	C351.499481,253.251053 351.998962,253.502090 352.749207,253.876572 
	C353.000000,254.000000 353.000000,254.500000 353.000000,254.750000 
	C352.173309,254.794113 351.346588,254.588242 350.259949,254.191193 
	C350.187256,253.744751 350.398315,253.511002 350.816589,253.149384 
z"/>
<path fill="#7F35B2" opacity="1.000000" stroke="none" 
	d="
M369.282288,268.933868 
	C369.517639,268.194092 370.035248,267.388153 370.552887,266.582245 
	C370.819153,266.802582 371.085388,267.022919 371.351654,267.243225 
	C370.755951,267.784729 370.160278,268.326233 369.282288,268.933868 
z"/>
<path fill="#7F34B2" opacity="1.000000" stroke="none" 
	d="
M386.591217,170.000427 
	C387.579071,170.532608 388.158142,171.065231 388.893860,171.851318 
	C388.932098,172.970917 388.813690,173.837036 388.408875,174.868988 
	C385.621826,175.482086 383.101685,176.309692 380.630371,176.183151 
	C379.686218,176.134781 378.853943,173.901779 377.985352,172.332169 
	C380.727478,171.333603 383.454956,170.667221 386.591217,170.000427 
z"/>
<path fill="#7F35B2" opacity="1.000000" stroke="none" 
	d="
M346.851379,230.273224 
	C347.461151,229.163605 348.428345,228.150879 349.676361,227.012070 
	C349.041046,228.047348 348.124908,229.208740 346.851379,230.273224 
z"/>
</svg>